<?xml version="1.0" encoding="UTF-8"?><svg id="Calque_2" xmlns="http://www.w3.org/2000/svg" viewBox="0 0 978.8 978.8"><defs><style>.cls-1{fill:#303031;}.cls-2{fill:#a4a3a4;}.cls-3{fill:#838383;}.cls-4{fill:#cac7c7;}.cls-5{fill:#4a4747;}</style></defs><g id="Calque_1-2"><g><rect class="cls-4" x="770.95" y="652.42" width="29.66" height="29.63"/><rect class="cls-3" x="770.95" y="533.85" width="29.66" height="29.63"/><rect class="cls-3" x="770.95" y="504.23" width="29.66" height="29.63"/><rect class="cls-3" x="770.95" y="474.57" width="29.66" height="29.66"/><rect class="cls-3" x="770.95" y="444.94" width="29.66" height="29.63"/><rect class="cls-3" x="770.95" y="415.32" width="29.66" height="29.63"/><rect class="cls-3" x="770.95" y="385.66" width="29.66" height="29.66"/><rect class="cls-3" x="770.95" y="356.03" width="29.66" height="29.63"/><rect class="cls-3" x="770.95" y="326.37" width="29.66" height="29.66"/><rect class="cls-3" x="770.95" y="296.75" width="29.66" height="29.63"/><rect class="cls-3" x="770.95" y="267.12" width="29.66" height="29.63"/><rect class="cls-4" x="741.32" y="652.42" width="29.63" height="29.63"/><rect class="cls-3" x="741.32" y="563.48" width="29.63" height="29.66"/><rect class="cls-4" x="741.32" y="533.85" width="29.63" height="29.63"/><rect class="cls-5" x="741.32" y="504.23" width="29.63" height="29.63"/><rect class="cls-5" x="741.32" y="474.57" width="29.63" height="29.66"/><rect class="cls-5" x="741.32" y="444.94" width="29.63" height="29.63"/><rect class="cls-5" x="741.32" y="415.32" width="29.63" height="29.63"/><rect class="cls-5" x="741.32" y="385.66" width="29.63" height="29.66"/><rect class="cls-5" x="741.32" y="356.03" width="29.63" height="29.63"/><rect class="cls-5" x="741.32" y="326.37" width="29.63" height="29.66"/><rect class="cls-5" x="741.32" y="296.75" width="29.63" height="29.63"/><rect class="cls-5" x="741.32" y="267.12" width="29.63" height="29.63"/><rect class="cls-3" x="741.32" y="237.46" width="29.63" height="29.66"/><rect class="cls-4" x="711.69" y="652.42" width="29.63" height="29.63"/><rect class="cls-4" x="711.69" y="563.48" width="29.63" height="29.66"/><rect class="cls-4" x="711.69" y="533.85" width="29.63" height="29.63"/><rect class="cls-1" x="711.69" y="504.23" width="29.63" height="29.63"/><rect x="711.69" y="474.57" width="29.63" height="29.66"/><rect class="cls-1" x="711.69" y="444.94" width="29.63" height="29.63"/><rect class="cls-1" x="711.69" y="415.32" width="29.63" height="29.63"/><rect class="cls-1" x="711.69" y="385.66" width="29.63" height="29.66"/><rect class="cls-1" x="711.69" y="356.03" width="29.63" height="29.63"/><rect class="cls-1" x="711.69" y="326.37" width="29.63" height="29.66"/><rect class="cls-1" x="711.69" y="296.75" width="29.63" height="29.63"/><rect class="cls-1" x="711.69" y="267.12" width="29.63" height="29.63"/><rect class="cls-5" x="711.69" y="237.46" width="29.63" height="29.66"/><rect class="cls-4" x="682.04" y="652.42" width="29.66" height="29.63"/><rect class="cls-4" x="682.04" y="563.48" width="29.66" height="29.66"/><rect class="cls-4" x="682.04" y="533.85" width="29.66" height="29.63"/><rect class="cls-1" x="682.04" y="504.23" width="29.66" height="29.63"/><rect x="682.04" y="474.57" width="29.66" height="29.66"/><rect class="cls-1" x="682.04" y="444.94" width="29.66" height="29.63"/><rect class="cls-1" x="682.04" y="415.32" width="29.66" height="29.63"/><rect class="cls-1" x="682.04" y="385.66" width="29.66" height="29.66"/><rect class="cls-1" x="682.04" y="356.03" width="29.66" height="29.63"/><rect class="cls-1" x="682.04" y="326.37" width="29.66" height="29.66"/><rect class="cls-1" x="682.04" y="296.75" width="29.66" height="29.63"/><rect class="cls-1" x="682.04" y="267.12" width="29.66" height="29.63"/><rect class="cls-5" x="682.04" y="237.46" width="29.66" height="29.66"/><rect class="cls-4" x="652.41" y="652.42" width="29.63" height="29.63"/><rect class="cls-4" x="652.41" y="563.48" width="29.63" height="29.66"/><rect class="cls-4" x="652.41" y="533.85" width="29.63" height="29.63"/><rect class="cls-1" x="652.41" y="504.23" width="29.63" height="29.63"/><rect x="652.41" y="474.57" width="29.63" height="29.66"/><rect class="cls-1" x="652.41" y="444.94" width="29.63" height="29.63"/><rect class="cls-1" x="652.41" y="415.32" width="29.63" height="29.63"/><rect class="cls-1" x="652.41" y="385.66" width="29.63" height="29.66"/><rect class="cls-1" x="652.41" y="356.03" width="29.63" height="29.63"/><rect class="cls-1" x="652.41" y="326.37" width="29.63" height="29.66"/><rect class="cls-1" x="652.41" y="296.75" width="29.63" height="29.63"/><rect class="cls-1" x="652.41" y="267.12" width="29.63" height="29.63"/><rect class="cls-5" x="652.41" y="237.46" width="29.63" height="29.66"/><rect class="cls-4" x="622.78" y="652.42" width="29.63" height="29.63"/><rect class="cls-4" x="622.78" y="563.48" width="29.63" height="29.66"/><rect class="cls-4" x="622.78" y="533.85" width="29.63" height="29.63"/><rect class="cls-1" x="622.78" y="504.23" width="29.63" height="29.63"/><rect x="622.78" y="474.57" width="29.63" height="29.66"/><rect class="cls-1" x="622.78" y="444.94" width="29.63" height="29.63"/><rect class="cls-1" x="622.78" y="415.32" width="29.63" height="29.63"/><rect class="cls-1" x="622.78" y="385.66" width="29.63" height="29.66"/><rect class="cls-1" x="622.78" y="356.03" width="29.63" height="29.63"/><rect class="cls-1" x="622.78" y="326.37" width="29.63" height="29.66"/><rect class="cls-1" x="622.78" y="296.75" width="29.63" height="29.63"/><rect class="cls-1" x="622.78" y="267.12" width="29.63" height="29.63"/><rect class="cls-5" x="622.78" y="237.46" width="29.63" height="29.66"/><rect class="cls-4" x="593.13" y="652.42" width="29.66" height="29.63"/><rect class="cls-4" x="593.13" y="563.48" width="29.66" height="29.66"/><rect class="cls-4" x="593.13" y="533.85" width="29.66" height="29.63"/><rect class="cls-1" x="593.13" y="504.23" width="29.66" height="29.63"/><rect x="593.13" y="474.57" width="29.66" height="29.66"/><rect x="593.13" y="444.94" width="29.66" height="29.63"/><rect class="cls-1" x="593.13" y="415.32" width="29.66" height="29.63"/><rect class="cls-1" x="593.13" y="385.66" width="29.66" height="29.66"/><rect class="cls-1" x="593.13" y="356.03" width="29.66" height="29.63"/><rect class="cls-1" x="593.13" y="326.37" width="29.66" height="29.66"/><rect class="cls-1" x="593.13" y="296.75" width="29.66" height="29.63"/><rect class="cls-1" x="593.13" y="267.12" width="29.66" height="29.63"/><rect class="cls-5" x="593.13" y="237.46" width="29.66" height="29.66"/><rect class="cls-2" x="563.5" y="652.42" width="29.63" height="29.63"/><rect class="cls-3" x="563.5" y="622.77" width="29.63" height="29.66"/><rect class="cls-1" x="563.5" y="593.14" width="29.63" height="29.63"/><rect class="cls-4" x="563.5" y="563.48" width="29.63" height="29.66"/><rect class="cls-4" x="563.5" y="533.85" width="29.63" height="29.63"/><rect class="cls-1" x="563.5" y="504.23" width="29.63" height="29.63"/><rect x="563.5" y="474.57" width="29.63" height="29.66"/><rect x="563.5" y="444.94" width="29.63" height="29.63"/><rect class="cls-1" x="563.5" y="415.32" width="29.63" height="29.63"/><rect class="cls-1" x="563.5" y="385.66" width="29.63" height="29.66"/><rect class="cls-1" x="563.5" y="356.03" width="29.63" height="29.63"/><rect class="cls-1" x="563.5" y="326.37" width="29.63" height="29.66"/><rect class="cls-1" x="563.5" y="296.75" width="29.63" height="29.63"/><rect class="cls-1" x="563.5" y="267.12" width="29.63" height="29.63"/><rect class="cls-5" x="563.5" y="237.46" width="29.63" height="29.66"/><rect class="cls-2" x="533.84" y="652.42" width="29.66" height="29.63"/><rect class="cls-3" x="533.84" y="622.77" width="29.66" height="29.66"/><rect class="cls-3" x="533.84" y="593.14" width="29.66" height="29.63"/><rect class="cls-4" x="533.84" y="563.48" width="29.66" height="29.66"/><rect class="cls-4" x="533.84" y="533.85" width="29.66" height="29.63"/><rect class="cls-1" x="533.84" y="504.23" width="29.66" height="29.63"/><rect x="533.84" y="474.57" width="29.66" height="29.66"/><rect x="533.84" y="444.94" width="29.66" height="29.63"/><rect class="cls-1" x="533.84" y="415.32" width="29.66" height="29.63"/><rect class="cls-1" x="533.84" y="385.66" width="29.66" height="29.66"/><rect class="cls-1" x="533.84" y="356.03" width="29.66" height="29.63"/><rect class="cls-1" x="533.84" y="326.37" width="29.66" height="29.66"/><rect class="cls-1" x="533.84" y="296.75" width="29.66" height="29.63"/><rect class="cls-1" x="533.84" y="267.12" width="29.66" height="29.63"/><rect class="cls-5" x="533.84" y="237.46" width="29.66" height="29.66"/><rect class="cls-2" x="504.21" y="652.42" width="29.63" height="29.63"/><rect class="cls-3" x="504.21" y="622.77" width="29.63" height="29.66"/><rect class="cls-3" x="504.21" y="593.14" width="29.63" height="29.63"/><rect class="cls-4" x="504.21" y="563.48" width="29.63" height="29.66"/><rect class="cls-1" x="504.21" y="533.85" width="29.63" height="29.63"/><rect class="cls-1" x="504.21" y="504.23" width="29.63" height="29.63"/><rect x="504.21" y="474.57" width="29.63" height="29.66"/><rect x="504.21" y="444.94" width="29.63" height="29.63"/><rect x="504.21" y="415.32" width="29.63" height="29.63"/><rect class="cls-1" x="504.21" y="385.66" width="29.63" height="29.66"/><rect class="cls-1" x="504.21" y="356.03" width="29.63" height="29.63"/><rect class="cls-1" x="504.21" y="326.37" width="29.63" height="29.66"/><rect class="cls-1" x="504.21" y="296.75" width="29.63" height="29.63"/><rect class="cls-1" x="504.21" y="267.12" width="29.63" height="29.63"/><rect class="cls-1" x="504.21" y="237.46" width="29.63" height="29.66"/><rect class="cls-2" x="474.59" y="652.42" width="29.63" height="29.63"/><rect class="cls-3" x="474.59" y="622.77" width="29.63" height="29.66"/><rect class="cls-3" x="474.59" y="593.14" width="29.63" height="29.63"/><rect class="cls-4" x="474.59" y="563.48" width="29.63" height="29.66"/><rect class="cls-4" x="474.59" y="533.85" width="29.63" height="29.63"/><rect class="cls-1" x="474.59" y="504.23" width="29.63" height="29.63"/><rect x="474.59" y="474.57" width="29.63" height="29.66"/><rect x="474.59" y="444.94" width="29.63" height="29.63"/><rect x="474.59" y="415.32" width="29.63" height="29.63"/><rect class="cls-1" x="474.59" y="385.66" width="29.63" height="29.66"/><rect class="cls-1" x="474.59" y="356.03" width="29.63" height="29.63"/><rect class="cls-1" x="474.59" y="326.37" width="29.63" height="29.66"/><rect class="cls-1" x="474.59" y="296.75" width="29.63" height="29.63"/><rect class="cls-1" x="474.59" y="267.12" width="29.63" height="29.63"/><rect class="cls-5" x="474.59" y="237.46" width="29.63" height="29.66"/><rect class="cls-2" x="444.93" y="652.42" width="29.66" height="29.63"/><rect class="cls-3" x="444.93" y="622.77" width="29.66" height="29.66"/><rect class="cls-3" x="444.93" y="593.14" width="29.66" height="29.63"/><rect class="cls-4" x="444.93" y="563.48" width="29.66" height="29.66"/><rect class="cls-4" x="444.93" y="533.85" width="29.66" height="29.63"/><rect class="cls-1" x="444.93" y="504.23" width="29.66" height="29.63"/><rect x="444.93" y="474.57" width="29.66" height="29.66"/><rect x="444.93" y="444.94" width="29.66" height="29.63"/><rect x="444.93" y="415.32" width="29.66" height="29.63"/><rect x="444.93" y="385.66" width="29.66" height="29.66"/><rect class="cls-1" x="444.93" y="356.03" width="29.66" height="29.63"/><rect class="cls-1" x="444.93" y="326.37" width="29.66" height="29.66"/><rect class="cls-1" x="444.93" y="296.75" width="29.66" height="29.63"/><rect class="cls-1" x="444.93" y="267.12" width="29.66" height="29.63"/><rect class="cls-5" x="444.93" y="237.46" width="29.66" height="29.66"/><rect class="cls-2" x="415.3" y="652.42" width="29.63" height="29.63"/><rect class="cls-4" x="415.3" y="563.48" width="29.63" height="29.66"/><rect class="cls-4" x="415.3" y="533.85" width="29.63" height="29.63"/><rect class="cls-1" x="415.3" y="504.23" width="29.63" height="29.63"/><rect x="415.3" y="474.57" width="29.63" height="29.66"/><rect x="415.3" y="444.94" width="29.63" height="29.63"/><rect x="415.3" y="415.32" width="29.63" height="29.63"/><rect x="415.3" y="385.66" width="29.63" height="29.66"/><rect class="cls-1" x="415.3" y="356.03" width="29.63" height="29.63"/><rect class="cls-1" x="415.3" y="326.37" width="29.63" height="29.66"/><rect class="cls-1" x="415.3" y="296.75" width="29.63" height="29.63"/><rect class="cls-1" x="415.3" y="267.12" width="29.63" height="29.63"/><rect class="cls-5" x="415.3" y="237.46" width="29.63" height="29.66"/><rect class="cls-4" x="385.68" y="652.42" width="29.63" height="29.63"/><rect class="cls-4" x="385.68" y="563.48" width="29.63" height="29.66"/><rect class="cls-4" x="385.68" y="533.85" width="29.63" height="29.63"/><rect class="cls-1" x="385.68" y="504.23" width="29.63" height="29.63"/><rect x="385.68" y="474.57" width="29.63" height="29.66"/><rect x="385.68" y="444.94" width="29.63" height="29.63"/><rect x="385.68" y="415.32" width="29.63" height="29.63"/><rect x="385.68" y="385.66" width="29.63" height="29.66"/><rect class="cls-1" x="385.68" y="356.03" width="29.63" height="29.63"/><rect class="cls-1" x="385.68" y="326.37" width="29.63" height="29.66"/><rect class="cls-1" x="385.68" y="296.75" width="29.63" height="29.63"/><rect class="cls-1" x="385.68" y="267.12" width="29.63" height="29.63"/><rect class="cls-5" x="385.68" y="237.46" width="29.63" height="29.66"/><rect class="cls-4" x="356.02" y="652.42" width="29.66" height="29.63"/><rect class="cls-4" x="356.02" y="563.48" width="29.66" height="29.66"/><rect class="cls-4" x="356.02" y="533.85" width="29.66" height="29.63"/><rect class="cls-1" x="356.02" y="504.23" width="29.66" height="29.63"/><rect x="356.02" y="474.57" width="29.66" height="29.66"/><rect x="356.02" y="444.94" width="29.66" height="29.63"/><rect x="356.02" y="415.32" width="29.66" height="29.63"/><rect x="356.02" y="385.66" width="29.66" height="29.66"/><rect x="356.02" y="356.03" width="29.66" height="29.63"/><rect class="cls-1" x="356.02" y="326.37" width="29.66" height="29.66"/><rect class="cls-1" x="356.02" y="296.75" width="29.66" height="29.63"/><rect class="cls-1" x="356.02" y="267.12" width="29.66" height="29.63"/><rect class="cls-5" x="356.02" y="237.46" width="29.66" height="29.66"/><rect class="cls-4" x="326.39" y="652.42" width="29.63" height="29.63"/><rect class="cls-4" x="326.39" y="563.48" width="29.63" height="29.66"/><rect class="cls-4" x="326.39" y="533.85" width="29.63" height="29.63"/><rect class="cls-1" x="326.39" y="504.23" width="29.63" height="29.63"/><rect x="326.39" y="474.57" width="29.63" height="29.66"/><rect x="326.39" y="444.94" width="29.63" height="29.63"/><rect x="326.39" y="415.32" width="29.63" height="29.63"/><rect x="326.39" y="385.66" width="29.63" height="29.66"/><rect x="326.39" y="356.03" width="29.63" height="29.63"/><rect class="cls-1" x="326.39" y="326.37" width="29.63" height="29.66"/><rect class="cls-1" x="326.39" y="296.75" width="29.63" height="29.63"/><rect class="cls-1" x="326.39" y="267.12" width="29.63" height="29.63"/><rect class="cls-5" x="326.39" y="237.46" width="29.63" height="29.66"/><rect class="cls-4" x="296.73" y="652.42" width="29.66" height="29.63"/><rect class="cls-4" x="296.73" y="563.48" width="29.66" height="29.66"/><rect class="cls-4" x="296.73" y="533.85" width="29.66" height="29.63"/><rect class="cls-1" x="296.73" y="504.23" width="29.66" height="29.63"/><rect x="296.73" y="474.57" width="29.66" height="29.66"/><rect x="296.73" y="444.94" width="29.66" height="29.63"/><rect x="296.73" y="415.32" width="29.66" height="29.63"/><rect x="296.73" y="385.66" width="29.66" height="29.66"/><rect x="296.73" y="356.03" width="29.66" height="29.63"/><rect x="296.73" y="326.37" width="29.66" height="29.66"/><rect class="cls-1" x="296.73" y="296.75" width="29.66" height="29.63"/><rect class="cls-1" x="296.73" y="267.12" width="29.66" height="29.63"/><rect class="cls-5" x="296.73" y="237.46" width="29.66" height="29.66"/><rect class="cls-4" x="267.11" y="652.42" width="29.63" height="29.63"/><rect class="cls-4" x="267.11" y="563.48" width="29.63" height="29.66"/><rect class="cls-4" x="267.11" y="533.85" width="29.63" height="29.63"/><rect class="cls-1" x="267.11" y="504.23" width="29.63" height="29.63"/><rect x="267.11" y="474.57" width="29.63" height="29.66"/><rect x="267.11" y="444.94" width="29.63" height="29.63"/><rect x="267.11" y="415.32" width="29.63" height="29.63"/><rect x="267.11" y="385.66" width="29.63" height="29.66"/><rect x="267.11" y="356.03" width="29.63" height="29.63"/><rect x="267.11" y="326.37" width="29.63" height="29.66"/><rect x="267.11" y="296.75" width="29.63" height="29.63"/><rect class="cls-1" x="267.11" y="267.12" width="29.63" height="29.63"/><rect class="cls-5" x="267.11" y="237.46" width="29.63" height="29.66"/><rect class="cls-4" x="237.48" y="652.42" width="29.63" height="29.63"/><rect class="cls-4" x="237.48" y="533.85" width="29.63" height="29.63"/><rect class="cls-1" x="237.48" y="504.23" width="29.63" height="29.63"/><rect class="cls-1" x="237.48" y="474.57" width="29.63" height="29.66"/><rect class="cls-1" x="237.48" y="444.94" width="29.63" height="29.63"/><rect class="cls-1" x="237.48" y="415.32" width="29.63" height="29.63"/><rect class="cls-1" x="237.48" y="385.66" width="29.63" height="29.66"/><rect class="cls-1" x="237.48" y="356.03" width="29.63" height="29.63"/><rect class="cls-1" x="237.48" y="326.37" width="29.63" height="29.66"/><rect class="cls-1" x="237.48" y="296.75" width="29.63" height="29.63"/><rect class="cls-1" x="237.48" y="267.12" width="29.63" height="29.63"/></g></g></svg>