<?xml version="1.0" encoding="UTF-8"?><svg id="Calque_2" xmlns="http://www.w3.org/2000/svg" viewBox="0 0 147.79 147.79"><defs><style>.cls-1{fill:#f1f3f8;}.cls-2{fill:#465994;}</style></defs><g id="Calque_1-2"><g><rect class="cls-2" x="125.23" y="98.45" width="4.46" height="4.46"/><rect class="cls-2" x="125.23" y="93.99" width="4.46" height="4.46"/><rect class="cls-2" x="125.23" y="89.52" width="4.46" height="4.46"/><rect class="cls-2" x="125.23" y="85.05" width="4.46" height="4.47"/><rect class="cls-2" x="125.23" y="80.59" width="4.46" height="4.46"/><rect class="cls-2" x="125.23" y="76.13" width="4.46" height="4.46"/><rect class="cls-2" x="125.23" y="71.67" width="4.46" height="4.46"/><rect class="cls-2" x="125.23" y="67.2" width="4.46" height="4.46"/><rect class="cls-2" x="125.23" y="62.74" width="4.46" height="4.46"/><rect class="cls-2" x="125.23" y="58.27" width="4.46" height="4.47"/><rect class="cls-2" x="125.23" y="53.81" width="4.46" height="4.46"/><rect class="cls-2" x="125.23" y="49.35" width="4.46" height="4.46"/><rect class="cls-2" x="125.23" y="44.88" width="4.46" height="4.46"/><rect class="cls-2" x="125.23" y="40.42" width="4.46" height="4.46"/><rect class="cls-2" x="125.23" y="35.96" width="4.46" height="4.46"/><rect class="cls-2" x="125.23" y="31.5" width="4.46" height="4.46"/><rect class="cls-2" x="125.23" y="27.03" width="4.46" height="4.47"/><rect class="cls-2" x="125.23" y="22.57" width="4.46" height="4.46"/><rect class="cls-2" x="120.77" y="102.91" width="4.46" height="4.46"/><rect class="cls-2" x="120.77" y="98.45" width="4.46" height="4.46"/><rect class="cls-2" x="120.77" y="93.99" width="4.46" height="4.46"/><rect class="cls-2" x="120.77" y="89.52" width="4.46" height="4.46"/><rect class="cls-2" x="120.77" y="85.05" width="4.46" height="4.47"/><rect class="cls-2" x="120.77" y="80.59" width="4.46" height="4.46"/><rect class="cls-2" x="120.77" y="76.13" width="4.46" height="4.46"/><rect class="cls-2" x="120.77" y="71.67" width="4.46" height="4.46"/><rect class="cls-2" x="120.77" y="67.2" width="4.46" height="4.46"/><rect class="cls-2" x="120.77" y="62.74" width="4.46" height="4.46"/><rect class="cls-2" x="120.77" y="58.27" width="4.46" height="4.47"/><rect class="cls-2" x="120.77" y="53.81" width="4.46" height="4.46"/><rect class="cls-2" x="120.77" y="49.35" width="4.46" height="4.46"/><rect class="cls-2" x="120.77" y="44.88" width="4.46" height="4.46"/><rect class="cls-2" x="120.77" y="40.42" width="4.46" height="4.46"/><rect class="cls-2" x="120.77" y="35.96" width="4.46" height="4.46"/><rect class="cls-2" x="120.77" y="31.5" width="4.46" height="4.46"/><rect class="cls-2" x="120.77" y="27.03" width="4.46" height="4.47"/><rect class="cls-2" x="120.77" y="22.57" width="4.46" height="4.46"/><rect class="cls-2" x="120.77" y="18.1" width="4.46" height="4.46"/><rect class="cls-2" x="116.3" y="107.37" width="4.47" height="4.46"/><rect class="cls-2" x="116.3" y="102.91" width="4.47" height="4.46"/><rect class="cls-2" x="116.3" y="98.45" width="4.47" height="4.46"/><rect class="cls-2" x="116.3" y="93.99" width="4.47" height="4.46"/><rect class="cls-2" x="116.3" y="89.52" width="4.47" height="4.46"/><rect class="cls-2" x="116.3" y="85.05" width="4.47" height="4.47"/><rect class="cls-2" x="116.3" y="80.59" width="4.47" height="4.46"/><rect class="cls-2" x="116.3" y="76.13" width="4.47" height="4.46"/><rect class="cls-2" x="116.3" y="71.67" width="4.47" height="4.46"/><rect class="cls-2" x="116.3" y="67.2" width="4.47" height="4.46"/><rect class="cls-2" x="116.3" y="62.74" width="4.47" height="4.46"/><rect class="cls-2" x="116.3" y="58.27" width="4.47" height="4.47"/><rect class="cls-2" x="116.3" y="53.81" width="4.47" height="4.46"/><rect class="cls-2" x="116.3" y="49.35" width="4.47" height="4.46"/><rect class="cls-2" x="116.3" y="44.88" width="4.47" height="4.46"/><rect class="cls-2" x="116.3" y="40.42" width="4.47" height="4.46"/><rect class="cls-2" x="116.3" y="35.96" width="4.47" height="4.46"/><rect class="cls-2" x="116.3" y="31.5" width="4.47" height="4.46"/><rect class="cls-2" x="116.3" y="27.03" width="4.47" height="4.47"/><rect class="cls-2" x="116.3" y="22.57" width="4.47" height="4.46"/><rect class="cls-2" x="116.3" y="18.1" width="4.47" height="4.46"/><rect class="cls-2" x="116.3" y="13.64" width="4.47" height="4.46"/><rect class="cls-2" x="111.84" y="111.84" width="4.46" height="4.46"/><rect class="cls-2" x="111.84" y="107.37" width="4.46" height="4.46"/><rect class="cls-2" x="111.84" y="102.91" width="4.46" height="4.46"/><rect class="cls-2" x="111.84" y="98.45" width="4.46" height="4.46"/><rect class="cls-2" x="111.84" y="93.99" width="4.46" height="4.46"/><rect class="cls-2" x="111.84" y="89.52" width="4.46" height="4.46"/><rect class="cls-2" x="111.84" y="85.05" width="4.46" height="4.47"/><rect class="cls-2" x="111.84" y="80.59" width="4.46" height="4.46"/><rect class="cls-2" x="111.84" y="76.13" width="4.46" height="4.46"/><rect class="cls-2" x="111.84" y="71.67" width="4.46" height="4.46"/><rect class="cls-2" x="111.84" y="67.2" width="4.46" height="4.46"/><rect class="cls-2" x="111.84" y="62.74" width="4.46" height="4.46"/><rect class="cls-2" x="111.84" y="58.27" width="4.46" height="4.47"/><rect class="cls-2" x="111.84" y="53.81" width="4.46" height="4.46"/><rect class="cls-2" x="111.84" y="49.35" width="4.46" height="4.46"/><rect class="cls-2" x="111.84" y="44.88" width="4.46" height="4.46"/><rect class="cls-2" x="111.84" y="40.42" width="4.46" height="4.46"/><rect class="cls-2" x="111.84" y="35.96" width="4.46" height="4.46"/><rect class="cls-2" x="111.84" y="31.5" width="4.46" height="4.46"/><rect class="cls-2" x="111.84" y="27.03" width="4.46" height="4.47"/><rect class="cls-2" x="111.84" y="22.57" width="4.46" height="4.46"/><rect class="cls-2" x="111.84" y="18.1" width="4.46" height="4.46"/><rect class="cls-2" x="111.84" y="13.64" width="4.46" height="4.46"/><rect class="cls-2" x="111.84" y="9.18" width="4.46" height="4.46"/><rect class="cls-2" x="107.37" y="111.84" width="4.46" height="4.46"/><rect class="cls-2" x="107.37" y="107.37" width="4.46" height="4.46"/><rect class="cls-2" x="107.37" y="102.91" width="4.46" height="4.46"/><rect class="cls-2" x="107.37" y="98.45" width="4.46" height="4.46"/><rect class="cls-2" x="107.37" y="93.99" width="4.46" height="4.46"/><rect class="cls-2" x="107.37" y="89.52" width="4.46" height="4.46"/><rect class="cls-2" x="107.37" y="85.05" width="4.46" height="4.47"/><rect class="cls-2" x="107.37" y="80.59" width="4.46" height="4.46"/><rect class="cls-2" x="107.37" y="76.13" width="4.46" height="4.46"/><rect class="cls-2" x="107.37" y="71.67" width="4.46" height="4.46"/><rect class="cls-2" x="107.37" y="67.2" width="4.46" height="4.46"/><rect class="cls-2" x="107.37" y="62.74" width="4.46" height="4.46"/><rect class="cls-2" x="107.37" y="58.27" width="4.46" height="4.47"/><rect class="cls-2" x="107.37" y="53.81" width="4.46" height="4.46"/><rect class="cls-2" x="107.37" y="49.35" width="4.46" height="4.46"/><rect class="cls-2" x="107.37" y="44.88" width="4.46" height="4.46"/><rect class="cls-2" x="107.37" y="40.42" width="4.46" height="4.46"/><rect class="cls-2" x="107.37" y="35.96" width="4.46" height="4.46"/><rect class="cls-2" x="107.37" y="31.5" width="4.46" height="4.46"/><rect class="cls-2" x="107.37" y="27.03" width="4.46" height="4.47"/><rect class="cls-2" x="107.37" y="22.57" width="4.46" height="4.46"/><rect class="cls-2" x="107.37" y="18.1" width="4.46" height="4.46"/><rect class="cls-2" x="107.37" y="13.64" width="4.46" height="4.46"/><rect class="cls-2" x="107.37" y="9.18" width="4.46" height="4.46"/><rect class="cls-2" x="102.91" y="111.84" width="4.46" height="4.46"/><rect class="cls-2" x="102.91" y="107.37" width="4.46" height="4.46"/><rect class="cls-2" x="102.91" y="102.91" width="4.46" height="4.46"/><rect class="cls-2" x="102.91" y="98.45" width="4.46" height="4.46"/><rect class="cls-2" x="102.91" y="93.99" width="4.46" height="4.46"/><rect class="cls-2" x="102.91" y="89.52" width="4.46" height="4.46"/><rect class="cls-2" x="102.91" y="85.05" width="4.46" height="4.47"/><rect class="cls-2" x="102.91" y="80.59" width="4.46" height="4.46"/><rect class="cls-2" x="102.91" y="76.13" width="4.46" height="4.46"/><rect class="cls-1" x="102.91" y="71.67" width="4.46" height="4.46"/><rect class="cls-1" x="102.91" y="67.2" width="4.46" height="4.46"/><rect class="cls-1" x="102.91" y="62.74" width="4.46" height="4.46"/><rect class="cls-1" x="102.91" y="58.27" width="4.46" height="4.47"/><rect class="cls-2" x="102.91" y="53.81" width="4.46" height="4.46"/><rect class="cls-2" x="102.91" y="49.35" width="4.46" height="4.46"/><rect class="cls-2" x="102.91" y="44.88" width="4.46" height="4.46"/><rect class="cls-1" x="102.91" y="40.42" width="4.46" height="4.46"/><rect class="cls-1" x="102.91" y="35.96" width="4.46" height="4.46"/><rect class="cls-1" x="102.91" y="31.5" width="4.46" height="4.46"/><rect class="cls-1" x="102.91" y="27.03" width="4.46" height="4.47"/><rect class="cls-2" x="102.91" y="22.57" width="4.46" height="4.46"/><rect class="cls-2" x="102.91" y="18.1" width="4.46" height="4.46"/><rect class="cls-2" x="102.91" y="13.64" width="4.46" height="4.46"/><rect class="cls-2" x="102.91" y="9.18" width="4.46" height="4.46"/><rect class="cls-2" x="98.45" y="111.84" width="4.46" height="4.46"/><rect class="cls-2" x="98.45" y="107.37" width="4.46" height="4.46"/><rect class="cls-2" x="98.45" y="102.91" width="4.46" height="4.46"/><rect class="cls-2" x="98.45" y="98.45" width="4.46" height="4.46"/><rect class="cls-2" x="98.45" y="93.99" width="4.46" height="4.46"/><rect class="cls-2" x="98.45" y="89.52" width="4.46" height="4.46"/><rect class="cls-2" x="98.45" y="85.05" width="4.46" height="4.47"/><rect class="cls-2" x="98.45" y="80.59" width="4.46" height="4.46"/><rect class="cls-2" x="98.45" y="76.13" width="4.46" height="4.46"/><rect class="cls-1" x="98.45" y="71.67" width="4.46" height="4.46"/><rect class="cls-1" x="98.45" y="67.2" width="4.46" height="4.46"/><rect class="cls-1" x="98.45" y="62.74" width="4.46" height="4.46"/><rect class="cls-1" x="98.45" y="58.27" width="4.46" height="4.47"/><rect class="cls-2" x="98.45" y="53.81" width="4.46" height="4.46"/><rect class="cls-2" x="98.45" y="49.35" width="4.46" height="4.46"/><rect class="cls-2" x="98.45" y="44.88" width="4.46" height="4.46"/><rect class="cls-1" x="98.45" y="40.42" width="4.46" height="4.46"/><rect class="cls-1" x="98.45" y="35.96" width="4.46" height="4.46"/><rect class="cls-1" x="98.45" y="31.5" width="4.46" height="4.46"/><rect class="cls-1" x="98.45" y="27.03" width="4.46" height="4.47"/><rect class="cls-2" x="98.45" y="22.57" width="4.46" height="4.46"/><rect class="cls-2" x="98.45" y="18.1" width="4.46" height="4.46"/><rect class="cls-2" x="98.45" y="13.64" width="4.46" height="4.46"/><rect class="cls-2" x="98.45" y="9.18" width="4.46" height="4.46"/><rect class="cls-2" x="93.99" y="111.84" width="4.46" height="4.46"/><rect class="cls-2" x="93.99" y="107.37" width="4.46" height="4.46"/><rect class="cls-2" x="93.99" y="102.91" width="4.46" height="4.46"/><rect class="cls-2" x="93.99" y="98.45" width="4.46" height="4.46"/><rect class="cls-2" x="93.99" y="93.99" width="4.46" height="4.46"/><rect class="cls-2" x="93.99" y="89.52" width="4.46" height="4.46"/><rect class="cls-2" x="93.99" y="85.05" width="4.46" height="4.47"/><rect class="cls-2" x="93.99" y="80.59" width="4.46" height="4.46"/><rect class="cls-2" x="93.99" y="76.13" width="4.46" height="4.46"/><rect class="cls-1" x="93.99" y="71.67" width="4.46" height="4.46"/><rect class="cls-1" x="93.99" y="67.2" width="4.46" height="4.46"/><rect class="cls-1" x="93.99" y="62.74" width="4.46" height="4.46"/><rect class="cls-1" x="93.99" y="58.27" width="4.46" height="4.47"/><rect class="cls-2" x="93.99" y="53.81" width="4.46" height="4.46"/><rect class="cls-2" x="93.99" y="49.35" width="4.46" height="4.46"/><rect class="cls-2" x="93.99" y="44.88" width="4.46" height="4.46"/><rect class="cls-1" x="93.99" y="40.42" width="4.46" height="4.46"/><rect class="cls-1" x="93.99" y="35.96" width="4.46" height="4.46"/><rect class="cls-1" x="93.99" y="31.5" width="4.46" height="4.46"/><rect class="cls-1" x="93.99" y="27.03" width="4.46" height="4.47"/><rect class="cls-2" x="93.99" y="22.57" width="4.46" height="4.46"/><rect class="cls-2" x="93.99" y="18.1" width="4.46" height="4.46"/><rect class="cls-2" x="93.99" y="13.64" width="4.46" height="4.46"/><rect class="cls-2" x="93.99" y="9.18" width="4.46" height="4.46"/><rect class="cls-1" x="89.52" y="111.84" width="4.47" height="4.46"/><rect class="cls-1" x="89.52" y="107.37" width="4.47" height="4.46"/><rect class="cls-1" x="89.52" y="102.91" width="4.47" height="4.46"/><rect class="cls-1" x="89.52" y="98.45" width="4.47" height="4.46"/><rect class="cls-1" x="89.52" y="93.99" width="4.47" height="4.46"/><rect class="cls-1" x="89.52" y="89.52" width="4.47" height="4.46"/><rect class="cls-1" x="89.52" y="85.05" width="4.47" height="4.47"/><rect class="cls-1" x="89.52" y="80.59" width="4.47" height="4.46"/><rect class="cls-1" x="89.52" y="76.13" width="4.47" height="4.46"/><rect class="cls-1" x="89.52" y="71.67" width="4.47" height="4.46"/><rect class="cls-1" x="89.52" y="67.2" width="4.47" height="4.46"/><rect class="cls-1" x="89.52" y="62.74" width="4.47" height="4.46"/><rect class="cls-1" x="89.52" y="58.27" width="4.47" height="4.47"/><rect class="cls-1" x="89.52" y="53.81" width="4.47" height="4.46"/><rect class="cls-1" x="89.52" y="49.35" width="4.47" height="4.46"/><rect class="cls-1" x="89.52" y="44.88" width="4.47" height="4.46"/><rect class="cls-1" x="89.52" y="40.42" width="4.47" height="4.46"/><rect class="cls-1" x="89.52" y="35.96" width="4.47" height="4.46"/><rect class="cls-1" x="89.52" y="31.5" width="4.47" height="4.46"/><rect class="cls-1" x="89.52" y="27.03" width="4.47" height="4.47"/><rect class="cls-2" x="89.52" y="22.57" width="4.47" height="4.46"/><rect class="cls-2" x="89.52" y="18.1" width="4.47" height="4.46"/><rect class="cls-2" x="89.52" y="13.64" width="4.47" height="4.46"/><rect class="cls-2" x="89.52" y="9.18" width="4.47" height="4.46"/><rect class="cls-1" x="85.05" y="111.84" width="4.46" height="4.46"/><rect class="cls-1" x="85.05" y="107.37" width="4.46" height="4.46"/><rect class="cls-1" x="85.05" y="102.91" width="4.46" height="4.46"/><rect class="cls-1" x="85.05" y="98.45" width="4.46" height="4.46"/><rect class="cls-1" x="85.05" y="93.99" width="4.46" height="4.46"/><rect class="cls-1" x="85.05" y="89.52" width="4.46" height="4.46"/><rect class="cls-1" x="85.05" y="85.05" width="4.46" height="4.47"/><rect class="cls-1" x="85.05" y="80.59" width="4.46" height="4.46"/><rect class="cls-1" x="85.05" y="76.13" width="4.46" height="4.46"/><rect class="cls-1" x="85.05" y="71.67" width="4.46" height="4.46"/><rect class="cls-1" x="85.05" y="67.2" width="4.46" height="4.46"/><rect class="cls-1" x="85.05" y="62.74" width="4.46" height="4.46"/><rect class="cls-1" x="85.05" y="58.27" width="4.46" height="4.47"/><rect class="cls-1" x="85.05" y="53.81" width="4.46" height="4.46"/><rect class="cls-1" x="85.05" y="49.35" width="4.46" height="4.46"/><rect class="cls-1" x="85.05" y="44.88" width="4.46" height="4.46"/><rect class="cls-1" x="85.05" y="40.42" width="4.46" height="4.46"/><rect class="cls-1" x="85.05" y="35.96" width="4.46" height="4.46"/><rect class="cls-1" x="85.05" y="31.5" width="4.46" height="4.46"/><rect class="cls-2" x="85.05" y="27.03" width="4.46" height="4.47"/><rect class="cls-2" x="85.05" y="22.57" width="4.46" height="4.46"/><rect class="cls-2" x="85.05" y="18.1" width="4.46" height="4.46"/><rect class="cls-2" x="85.05" y="13.64" width="4.46" height="4.46"/><rect class="cls-2" x="85.05" y="9.18" width="4.46" height="4.46"/><rect class="cls-1" x="80.59" y="111.84" width="4.46" height="4.46"/><rect class="cls-1" x="80.59" y="107.37" width="4.46" height="4.46"/><rect class="cls-1" x="80.59" y="102.91" width="4.46" height="4.46"/><rect class="cls-1" x="80.59" y="98.45" width="4.46" height="4.46"/><rect class="cls-1" x="80.59" y="93.99" width="4.46" height="4.46"/><rect class="cls-1" x="80.59" y="89.52" width="4.46" height="4.46"/><rect class="cls-1" x="80.59" y="85.05" width="4.46" height="4.47"/><rect class="cls-1" x="80.59" y="80.59" width="4.46" height="4.46"/><rect class="cls-1" x="80.59" y="76.13" width="4.46" height="4.46"/><rect class="cls-1" x="80.59" y="71.67" width="4.46" height="4.46"/><rect class="cls-1" x="80.59" y="67.2" width="4.46" height="4.46"/><rect class="cls-1" x="80.59" y="62.74" width="4.46" height="4.46"/><rect class="cls-1" x="80.59" y="58.27" width="4.46" height="4.47"/><rect class="cls-1" x="80.59" y="53.81" width="4.46" height="4.46"/><rect class="cls-1" x="80.59" y="49.35" width="4.46" height="4.46"/><rect class="cls-1" x="80.59" y="44.88" width="4.46" height="4.46"/><rect class="cls-1" x="80.59" y="40.42" width="4.46" height="4.46"/><rect class="cls-1" x="80.59" y="35.96" width="4.46" height="4.46"/><rect class="cls-2" x="80.59" y="31.5" width="4.46" height="4.46"/><rect class="cls-2" x="80.59" y="27.03" width="4.46" height="4.47"/><rect class="cls-2" x="80.59" y="22.57" width="4.46" height="4.46"/><rect class="cls-2" x="80.59" y="18.1" width="4.46" height="4.46"/><rect class="cls-2" x="80.59" y="13.64" width="4.46" height="4.46"/><rect class="cls-2" x="80.59" y="9.18" width="4.46" height="4.46"/><rect class="cls-1" x="76.13" y="111.84" width="4.46" height="4.46"/><rect class="cls-1" x="76.13" y="107.37" width="4.46" height="4.46"/><rect class="cls-1" x="76.13" y="102.91" width="4.46" height="4.46"/><rect class="cls-1" x="76.13" y="98.45" width="4.46" height="4.46"/><rect class="cls-1" x="76.13" y="93.99" width="4.46" height="4.46"/><rect class="cls-1" x="76.13" y="89.52" width="4.46" height="4.46"/><rect class="cls-1" x="76.13" y="85.05" width="4.46" height="4.47"/><rect class="cls-1" x="76.13" y="80.59" width="4.46" height="4.46"/><rect class="cls-1" x="76.13" y="76.13" width="4.46" height="4.46"/><rect class="cls-1" x="76.13" y="71.67" width="4.46" height="4.46"/><rect class="cls-1" x="76.13" y="67.2" width="4.46" height="4.46"/><rect class="cls-1" x="76.13" y="62.74" width="4.46" height="4.46"/><rect class="cls-1" x="76.13" y="58.27" width="4.46" height="4.47"/><rect class="cls-1" x="76.13" y="53.81" width="4.46" height="4.46"/><rect class="cls-1" x="76.13" y="49.35" width="4.46" height="4.46"/><rect class="cls-1" x="76.13" y="44.88" width="4.46" height="4.46"/><rect class="cls-1" x="76.13" y="40.42" width="4.46" height="4.46"/><rect class="cls-2" x="76.13" y="35.96" width="4.46" height="4.46"/><rect class="cls-2" x="76.13" y="31.5" width="4.46" height="4.46"/><rect class="cls-2" x="76.13" y="27.03" width="4.46" height="4.47"/><rect class="cls-2" x="76.13" y="22.57" width="4.46" height="4.46"/><rect class="cls-2" x="76.13" y="18.1" width="4.46" height="4.46"/><rect class="cls-2" x="76.13" y="13.64" width="4.46" height="4.46"/><rect class="cls-2" x="76.13" y="9.18" width="4.46" height="4.46"/><rect class="cls-2" x="71.67" y="111.84" width="4.46" height="4.46"/><rect class="cls-2" x="71.67" y="107.37" width="4.46" height="4.46"/><rect class="cls-2" x="71.67" y="102.91" width="4.46" height="4.46"/><rect class="cls-2" x="71.67" y="98.45" width="4.46" height="4.46"/><rect class="cls-2" x="71.67" y="93.99" width="4.46" height="4.46"/><rect class="cls-2" x="71.67" y="89.52" width="4.46" height="4.46"/><rect class="cls-2" x="71.67" y="85.05" width="4.46" height="4.47"/><rect class="cls-2" x="71.67" y="80.59" width="4.46" height="4.46"/><rect class="cls-2" x="71.67" y="76.13" width="4.46" height="4.46"/><rect class="cls-1" x="71.67" y="71.67" width="4.46" height="4.46"/><rect class="cls-1" x="71.67" y="67.2" width="4.46" height="4.46"/><rect class="cls-1" x="71.67" y="62.74" width="4.46" height="4.46"/><rect class="cls-1" x="71.67" y="58.27" width="4.46" height="4.47"/><rect class="cls-2" x="71.67" y="53.81" width="4.46" height="4.46"/><rect class="cls-2" x="71.67" y="49.35" width="4.46" height="4.46"/><rect class="cls-2" x="71.67" y="44.88" width="4.46" height="4.46"/><rect class="cls-2" x="71.67" y="40.42" width="4.46" height="4.46"/><rect class="cls-2" x="71.67" y="35.96" width="4.46" height="4.46"/><rect class="cls-2" x="71.67" y="31.5" width="4.46" height="4.46"/><rect class="cls-2" x="71.67" y="27.03" width="4.46" height="4.47"/><rect class="cls-2" x="71.67" y="22.57" width="4.46" height="4.46"/><rect class="cls-2" x="71.67" y="18.1" width="4.46" height="4.46"/><rect class="cls-2" x="71.67" y="13.64" width="4.46" height="4.46"/><rect class="cls-2" x="71.67" y="9.18" width="4.46" height="4.46"/><rect class="cls-2" x="67.2" y="111.84" width="4.46" height="4.46"/><rect class="cls-2" x="67.2" y="107.37" width="4.46" height="4.46"/><rect class="cls-2" x="67.2" y="102.91" width="4.46" height="4.46"/><rect class="cls-2" x="67.2" y="98.45" width="4.46" height="4.46"/><rect class="cls-2" x="67.2" y="93.99" width="4.46" height="4.46"/><rect class="cls-2" x="67.2" y="89.52" width="4.46" height="4.46"/><rect class="cls-2" x="67.2" y="85.05" width="4.46" height="4.47"/><rect class="cls-2" x="67.2" y="80.59" width="4.46" height="4.46"/><rect class="cls-2" x="67.2" y="76.13" width="4.46" height="4.46"/><rect class="cls-1" x="67.2" y="71.67" width="4.46" height="4.46"/><rect class="cls-1" x="67.2" y="67.2" width="4.46" height="4.46"/><rect class="cls-1" x="67.2" y="62.74" width="4.46" height="4.46"/><rect class="cls-1" x="67.2" y="58.27" width="4.46" height="4.47"/><rect class="cls-2" x="67.2" y="53.81" width="4.46" height="4.46"/><rect class="cls-2" x="67.2" y="49.35" width="4.46" height="4.46"/><rect class="cls-2" x="67.2" y="44.88" width="4.46" height="4.46"/><rect class="cls-2" x="67.2" y="40.42" width="4.46" height="4.46"/><rect class="cls-2" x="67.2" y="35.96" width="4.46" height="4.46"/><rect class="cls-2" x="67.2" y="31.5" width="4.46" height="4.46"/><rect class="cls-2" x="67.2" y="27.03" width="4.46" height="4.47"/><rect class="cls-2" x="67.2" y="22.57" width="4.46" height="4.46"/><rect class="cls-2" x="67.2" y="18.1" width="4.46" height="4.46"/><rect class="cls-2" x="67.2" y="13.64" width="4.46" height="4.46"/><rect class="cls-2" x="67.2" y="9.18" width="4.46" height="4.46"/><rect class="cls-2" x="62.74" y="111.84" width="4.46" height="4.46"/><rect class="cls-2" x="62.74" y="107.37" width="4.46" height="4.46"/><rect class="cls-2" x="62.74" y="102.91" width="4.46" height="4.46"/><rect class="cls-2" x="62.74" y="98.45" width="4.46" height="4.46"/><rect class="cls-2" x="62.74" y="93.99" width="4.46" height="4.46"/><rect class="cls-2" x="62.74" y="89.52" width="4.46" height="4.46"/><rect class="cls-2" x="62.74" y="85.05" width="4.46" height="4.47"/><rect class="cls-2" x="62.74" y="80.59" width="4.46" height="4.46"/><rect class="cls-2" x="62.74" y="76.13" width="4.46" height="4.46"/><rect class="cls-1" x="62.74" y="71.67" width="4.46" height="4.46"/><rect class="cls-1" x="62.74" y="67.2" width="4.46" height="4.46"/><rect class="cls-1" x="62.74" y="62.74" width="4.46" height="4.46"/><rect class="cls-1" x="62.74" y="58.27" width="4.46" height="4.47"/><rect class="cls-2" x="62.74" y="53.81" width="4.46" height="4.46"/><rect class="cls-2" x="62.74" y="49.35" width="4.46" height="4.46"/><rect class="cls-2" x="62.74" y="44.88" width="4.46" height="4.46"/><rect class="cls-2" x="62.74" y="40.42" width="4.46" height="4.46"/><rect class="cls-2" x="62.74" y="35.96" width="4.46" height="4.46"/><rect class="cls-2" x="62.74" y="31.5" width="4.46" height="4.46"/><rect class="cls-2" x="62.74" y="27.03" width="4.46" height="4.47"/><rect class="cls-2" x="62.74" y="22.57" width="4.46" height="4.46"/><rect class="cls-2" x="62.74" y="18.1" width="4.46" height="4.46"/><rect class="cls-2" x="62.74" y="13.64" width="4.46" height="4.46"/><rect class="cls-2" x="62.74" y="9.18" width="4.46" height="4.46"/><rect class="cls-2" x="58.27" y="111.84" width="4.47" height="4.46"/><rect class="cls-2" x="58.27" y="107.37" width="4.47" height="4.46"/><rect class="cls-2" x="58.27" y="102.91" width="4.47" height="4.46"/><rect class="cls-2" x="58.27" y="98.45" width="4.47" height="4.46"/><rect class="cls-2" x="58.27" y="93.99" width="4.47" height="4.46"/><rect class="cls-2" x="58.27" y="89.52" width="4.47" height="4.46"/><rect class="cls-2" x="58.27" y="85.05" width="4.47" height="4.47"/><rect class="cls-2" x="58.27" y="80.59" width="4.47" height="4.46"/><rect class="cls-2" x="58.27" y="76.13" width="4.47" height="4.46"/><rect class="cls-2" x="58.27" y="71.67" width="4.47" height="4.46"/><rect class="cls-2" x="58.27" y="67.2" width="4.47" height="4.46"/><rect class="cls-2" x="58.27" y="62.74" width="4.47" height="4.46"/><rect class="cls-2" x="58.27" y="58.27" width="4.47" height="4.47"/><rect class="cls-2" x="58.27" y="53.81" width="4.47" height="4.46"/><rect class="cls-2" x="58.27" y="49.35" width="4.47" height="4.46"/><rect class="cls-2" x="58.27" y="44.88" width="4.47" height="4.46"/><rect class="cls-2" x="58.27" y="40.42" width="4.47" height="4.46"/><rect class="cls-2" x="58.27" y="35.96" width="4.47" height="4.46"/><rect class="cls-2" x="58.27" y="31.5" width="4.47" height="4.46"/><rect class="cls-2" x="58.27" y="27.03" width="4.47" height="4.47"/><rect class="cls-2" x="58.27" y="22.57" width="4.47" height="4.46"/><rect class="cls-2" x="58.27" y="18.1" width="4.47" height="4.46"/><rect class="cls-2" x="58.27" y="13.64" width="4.47" height="4.46"/><rect class="cls-2" x="58.27" y="9.18" width="4.47" height="4.46"/><rect class="cls-2" x="53.81" y="111.84" width="4.46" height="4.46"/><rect class="cls-2" x="53.81" y="107.37" width="4.46" height="4.46"/><rect class="cls-2" x="53.81" y="102.91" width="4.46" height="4.46"/><rect class="cls-2" x="53.81" y="98.45" width="4.46" height="4.46"/><rect class="cls-2" x="53.81" y="93.99" width="4.46" height="4.46"/><rect class="cls-2" x="53.81" y="89.52" width="4.46" height="4.46"/><rect class="cls-2" x="53.81" y="85.05" width="4.46" height="4.47"/><rect class="cls-2" x="53.81" y="80.59" width="4.46" height="4.46"/><rect class="cls-2" x="53.81" y="76.13" width="4.46" height="4.46"/><rect class="cls-2" x="53.81" y="71.67" width="4.46" height="4.46"/><rect class="cls-2" x="53.81" y="67.2" width="4.46" height="4.46"/><rect class="cls-2" x="53.81" y="62.74" width="4.46" height="4.46"/><rect class="cls-2" x="53.81" y="58.27" width="4.46" height="4.47"/><rect class="cls-2" x="53.81" y="53.81" width="4.46" height="4.46"/><rect class="cls-2" x="53.81" y="49.35" width="4.46" height="4.46"/><rect class="cls-2" x="53.81" y="44.88" width="4.46" height="4.46"/><rect class="cls-2" x="53.81" y="40.42" width="4.46" height="4.46"/><rect class="cls-2" x="53.81" y="35.96" width="4.46" height="4.46"/><rect class="cls-2" x="53.81" y="31.5" width="4.46" height="4.46"/><rect class="cls-2" x="53.81" y="27.03" width="4.46" height="4.47"/><rect class="cls-2" x="53.81" y="22.57" width="4.46" height="4.46"/><rect class="cls-2" x="53.81" y="18.1" width="4.46" height="4.46"/><rect class="cls-2" x="53.81" y="13.64" width="4.46" height="4.46"/><rect class="cls-2" x="53.81" y="9.18" width="4.46" height="4.46"/><rect class="cls-2" x="49.35" y="111.84" width="4.46" height="4.46"/><rect class="cls-2" x="49.35" y="107.37" width="4.46" height="4.46"/><rect class="cls-2" x="49.35" y="102.91" width="4.46" height="4.46"/><rect class="cls-2" x="49.35" y="98.45" width="4.46" height="4.46"/><rect class="cls-2" x="49.35" y="93.99" width="4.46" height="4.46"/><rect class="cls-2" x="49.35" y="89.52" width="4.46" height="4.46"/><rect class="cls-2" x="49.35" y="85.05" width="4.46" height="4.47"/><rect class="cls-2" x="49.35" y="80.59" width="4.46" height="4.46"/><rect class="cls-2" x="49.35" y="76.13" width="4.46" height="4.46"/><rect class="cls-2" x="49.35" y="71.67" width="4.46" height="4.46"/><rect class="cls-2" x="49.35" y="67.2" width="4.46" height="4.46"/><rect class="cls-2" x="49.35" y="62.74" width="4.46" height="4.46"/><rect class="cls-2" x="49.35" y="58.27" width="4.46" height="4.47"/><rect class="cls-2" x="49.35" y="53.81" width="4.46" height="4.46"/><rect class="cls-2" x="49.35" y="49.35" width="4.46" height="4.46"/><rect class="cls-2" x="49.35" y="44.88" width="4.46" height="4.46"/><rect class="cls-2" x="49.35" y="40.42" width="4.46" height="4.46"/><rect class="cls-2" x="49.35" y="35.96" width="4.46" height="4.46"/><rect class="cls-2" x="49.35" y="31.5" width="4.46" height="4.46"/><rect class="cls-2" x="49.35" y="27.03" width="4.46" height="4.47"/><rect class="cls-2" x="49.35" y="22.57" width="4.46" height="4.46"/><rect class="cls-2" x="49.35" y="18.1" width="4.46" height="4.46"/><rect class="cls-2" x="49.35" y="13.64" width="4.46" height="4.46"/><rect class="cls-2" x="49.35" y="9.18" width="4.46" height="4.46"/><rect class="cls-2" x="44.88" y="111.84" width="4.46" height="4.46"/><rect class="cls-2" x="44.88" y="107.37" width="4.46" height="4.46"/><rect class="cls-2" x="44.88" y="102.91" width="4.46" height="4.46"/><rect class="cls-2" x="44.88" y="98.45" width="4.46" height="4.46"/><rect class="cls-2" x="44.88" y="93.99" width="4.46" height="4.46"/><rect class="cls-2" x="44.88" y="89.52" width="4.46" height="4.46"/><rect class="cls-2" x="44.88" y="85.05" width="4.46" height="4.47"/><rect class="cls-2" x="44.88" y="80.59" width="4.46" height="4.46"/><rect class="cls-2" x="44.88" y="76.13" width="4.46" height="4.46"/><rect class="cls-2" x="44.88" y="71.67" width="4.46" height="4.46"/><rect class="cls-2" x="44.88" y="67.2" width="4.46" height="4.46"/><rect class="cls-2" x="44.88" y="62.74" width="4.46" height="4.46"/><rect class="cls-2" x="44.88" y="58.27" width="4.46" height="4.47"/><rect class="cls-2" x="44.88" y="53.81" width="4.46" height="4.46"/><rect class="cls-2" x="44.88" y="49.35" width="4.46" height="4.46"/><rect class="cls-2" x="44.88" y="44.88" width="4.46" height="4.46"/><rect class="cls-2" x="44.88" y="40.42" width="4.46" height="4.46"/><rect class="cls-2" x="44.88" y="35.96" width="4.46" height="4.46"/><rect class="cls-2" x="44.88" y="31.5" width="4.46" height="4.46"/><rect class="cls-2" x="44.88" y="27.03" width="4.46" height="4.47"/><rect class="cls-2" x="44.88" y="22.57" width="4.46" height="4.46"/><rect class="cls-2" x="44.88" y="18.1" width="4.46" height="4.46"/><rect class="cls-2" x="44.88" y="13.64" width="4.46" height="4.46"/><rect class="cls-2" x="44.88" y="9.18" width="4.46" height="4.46"/><rect class="cls-2" x="40.42" y="111.84" width="4.46" height="4.46"/><rect class="cls-2" x="40.42" y="107.37" width="4.46" height="4.46"/><rect class="cls-2" x="40.42" y="102.91" width="4.46" height="4.46"/><rect class="cls-2" x="40.42" y="98.45" width="4.46" height="4.46"/><rect class="cls-2" x="40.42" y="93.99" width="4.46" height="4.46"/><rect class="cls-2" x="40.42" y="89.52" width="4.46" height="4.46"/><rect class="cls-2" x="40.42" y="85.05" width="4.46" height="4.47"/><rect class="cls-2" x="40.42" y="80.59" width="4.46" height="4.46"/><rect class="cls-2" x="40.42" y="76.13" width="4.46" height="4.46"/><rect class="cls-2" x="40.42" y="71.67" width="4.46" height="4.46"/><rect class="cls-2" x="40.42" y="67.2" width="4.46" height="4.46"/><rect class="cls-2" x="40.42" y="62.74" width="4.46" height="4.46"/><rect class="cls-2" x="40.42" y="58.27" width="4.46" height="4.47"/><rect class="cls-2" x="40.42" y="53.81" width="4.46" height="4.46"/><rect class="cls-2" x="40.42" y="49.35" width="4.46" height="4.46"/><rect class="cls-2" x="40.42" y="44.88" width="4.46" height="4.46"/><rect class="cls-2" x="40.42" y="40.42" width="4.46" height="4.46"/><rect class="cls-2" x="40.42" y="35.96" width="4.46" height="4.46"/><rect class="cls-2" x="40.42" y="31.5" width="4.46" height="4.46"/><rect class="cls-2" x="40.42" y="27.03" width="4.46" height="4.47"/><rect class="cls-2" x="40.42" y="22.57" width="4.46" height="4.46"/><rect class="cls-2" x="40.42" y="18.1" width="4.46" height="4.46"/><rect class="cls-2" x="40.42" y="13.64" width="4.46" height="4.46"/><rect class="cls-2" x="40.42" y="9.18" width="4.46" height="4.46"/><rect class="cls-2" x="35.96" y="111.84" width="4.46" height="4.46"/><rect class="cls-2" x="35.96" y="107.37" width="4.46" height="4.46"/><rect class="cls-2" x="35.96" y="102.91" width="4.46" height="4.46"/><rect class="cls-2" x="35.96" y="98.45" width="4.46" height="4.46"/><rect class="cls-2" x="35.96" y="93.99" width="4.46" height="4.46"/><rect class="cls-2" x="35.96" y="89.52" width="4.46" height="4.46"/><rect class="cls-2" x="35.96" y="85.05" width="4.46" height="4.47"/><rect class="cls-2" x="35.96" y="80.59" width="4.46" height="4.46"/><rect class="cls-2" x="35.96" y="76.13" width="4.46" height="4.46"/><rect class="cls-2" x="35.96" y="71.67" width="4.46" height="4.46"/><rect class="cls-2" x="35.96" y="67.2" width="4.46" height="4.46"/><rect class="cls-2" x="35.96" y="62.74" width="4.46" height="4.46"/><rect class="cls-2" x="35.96" y="58.27" width="4.46" height="4.47"/><rect class="cls-2" x="35.96" y="53.81" width="4.46" height="4.46"/><rect class="cls-2" x="35.96" y="49.35" width="4.46" height="4.46"/><rect class="cls-2" x="35.96" y="44.88" width="4.46" height="4.46"/><rect class="cls-2" x="35.96" y="40.42" width="4.46" height="4.46"/><rect class="cls-2" x="35.96" y="35.96" width="4.46" height="4.46"/><rect class="cls-2" x="35.96" y="31.5" width="4.46" height="4.46"/><rect class="cls-2" x="35.96" y="27.03" width="4.46" height="4.47"/><rect class="cls-2" x="35.96" y="22.57" width="4.46" height="4.46"/><rect class="cls-2" x="35.96" y="18.1" width="4.46" height="4.46"/><rect class="cls-2" x="35.96" y="13.64" width="4.46" height="4.46"/><rect class="cls-2" x="35.96" y="9.18" width="4.46" height="4.46"/><rect class="cls-2" x="31.5" y="107.37" width="4.46" height="4.46"/><rect class="cls-2" x="31.5" y="102.91" width="4.46" height="4.46"/><rect class="cls-2" x="31.5" y="98.45" width="4.46" height="4.46"/><rect class="cls-2" x="31.5" y="93.99" width="4.46" height="4.46"/><rect class="cls-2" x="31.5" y="89.52" width="4.46" height="4.46"/><rect class="cls-2" x="31.5" y="85.05" width="4.46" height="4.47"/><rect class="cls-2" x="31.5" y="80.59" width="4.46" height="4.46"/><rect class="cls-2" x="31.5" y="76.13" width="4.46" height="4.46"/><rect class="cls-2" x="31.5" y="71.67" width="4.46" height="4.46"/><rect class="cls-2" x="31.5" y="67.2" width="4.46" height="4.46"/><rect class="cls-2" x="31.5" y="62.74" width="4.46" height="4.46"/><rect class="cls-2" x="31.5" y="58.27" width="4.46" height="4.47"/><rect class="cls-2" x="31.5" y="53.81" width="4.46" height="4.46"/><rect class="cls-2" x="31.5" y="49.35" width="4.46" height="4.46"/><rect class="cls-2" x="31.5" y="44.88" width="4.46" height="4.46"/><rect class="cls-2" x="31.5" y="40.42" width="4.46" height="4.46"/><rect class="cls-2" x="31.5" y="35.96" width="4.46" height="4.46"/><rect class="cls-2" x="31.5" y="31.5" width="4.46" height="4.46"/><rect class="cls-2" x="31.5" y="27.03" width="4.46" height="4.47"/><rect class="cls-2" x="31.5" y="22.57" width="4.46" height="4.46"/><rect class="cls-2" x="31.5" y="18.1" width="4.46" height="4.46"/><rect class="cls-2" x="31.5" y="13.64" width="4.46" height="4.46"/><rect class="cls-2" x="27.03" y="102.91" width="4.47" height="4.46"/><rect class="cls-2" x="27.03" y="98.45" width="4.47" height="4.46"/><rect class="cls-2" x="27.03" y="93.99" width="4.47" height="4.46"/><rect class="cls-2" x="27.03" y="89.52" width="4.47" height="4.46"/><rect class="cls-2" x="27.03" y="85.05" width="4.47" height="4.47"/><rect class="cls-2" x="27.03" y="80.59" width="4.47" height="4.46"/><rect class="cls-2" x="27.03" y="76.13" width="4.47" height="4.46"/><rect class="cls-2" x="27.03" y="71.67" width="4.47" height="4.46"/><rect class="cls-2" x="27.03" y="67.2" width="4.47" height="4.46"/><rect class="cls-2" x="27.03" y="62.74" width="4.47" height="4.46"/><rect class="cls-2" x="27.03" y="58.27" width="4.47" height="4.47"/><rect class="cls-2" x="27.03" y="53.81" width="4.47" height="4.46"/><rect class="cls-2" x="27.03" y="49.35" width="4.47" height="4.46"/><rect class="cls-2" x="27.03" y="44.88" width="4.47" height="4.46"/><rect class="cls-2" x="27.03" y="40.42" width="4.47" height="4.46"/><rect class="cls-2" x="27.03" y="35.96" width="4.47" height="4.46"/><rect class="cls-2" x="27.03" y="31.5" width="4.47" height="4.46"/><rect class="cls-2" x="27.03" y="27.03" width="4.47" height="4.47"/><rect class="cls-2" x="27.03" y="22.57" width="4.47" height="4.46"/><rect class="cls-2" x="27.03" y="18.1" width="4.47" height="4.46"/><rect class="cls-2" x="22.57" y="98.45" width="4.46" height="4.46"/><rect class="cls-2" x="22.57" y="93.99" width="4.46" height="4.46"/><rect class="cls-2" x="22.57" y="89.52" width="4.46" height="4.46"/><rect class="cls-2" x="22.57" y="85.05" width="4.46" height="4.47"/><rect class="cls-2" x="22.57" y="80.59" width="4.46" height="4.46"/><rect class="cls-2" x="22.57" y="76.13" width="4.46" height="4.46"/><rect class="cls-2" x="22.57" y="71.67" width="4.46" height="4.46"/><rect class="cls-2" x="22.57" y="67.2" width="4.46" height="4.46"/><rect class="cls-2" x="22.57" y="62.74" width="4.46" height="4.46"/><rect class="cls-2" x="22.57" y="58.27" width="4.46" height="4.47"/><rect class="cls-2" x="22.57" y="53.81" width="4.46" height="4.46"/><rect class="cls-2" x="22.57" y="49.35" width="4.46" height="4.46"/><rect class="cls-2" x="22.57" y="44.88" width="4.46" height="4.46"/><rect class="cls-2" x="22.57" y="40.42" width="4.46" height="4.46"/><rect class="cls-2" x="22.57" y="35.96" width="4.46" height="4.46"/><rect class="cls-2" x="22.57" y="31.5" width="4.46" height="4.46"/><rect class="cls-2" x="22.57" y="27.03" width="4.46" height="4.47"/><rect class="cls-2" x="22.57" y="22.57" width="4.46" height="4.46"/></g></g></svg>