<?xml version="1.0" encoding="UTF-8"?><svg id="Calque_2" xmlns="http://www.w3.org/2000/svg" viewBox="0 0 133.82 135.68"><defs><style>.cls-1{fill:#fff;}.cls-2{fill:#030404;}.cls-3{fill:#81c7ef;}.cls-4{fill:#3662ab;}.cls-5{fill:#c71d1d;}.cls-6{fill:#e42426;}.cls-7{fill:#4692cf;}</style></defs><g id="Calque_1-2"><g><rect class="cls-2" x="105.41" y="86.33" width="4.05" height="4.11"/><rect class="cls-2" x="105.41" y="82.22" width="4.05" height="4.11"/><rect class="cls-2" x="105.41" y="78.11" width="4.05" height="4.11"/><rect class="cls-2" x="105.41" y="74" width="4.05" height="4.11"/><rect class="cls-2" x="105.41" y="69.89" width="4.05" height="4.11"/><rect class="cls-2" x="105.41" y="65.79" width="4.05" height="4.11"/><rect class="cls-2" x="105.41" y="61.68" width="4.05" height="4.11"/><rect class="cls-2" x="105.41" y="57.57" width="4.05" height="4.11"/><rect class="cls-2" x="105.41" y="53.46" width="4.05" height="4.11"/><rect class="cls-2" x="105.41" y="49.35" width="4.05" height="4.11"/><rect class="cls-2" x="101.36" y="90.44" width="4.05" height="4.11"/><rect class="cls-1" x="101.36" y="86.33" width="4.05" height="4.11"/><rect class="cls-1" x="101.36" y="82.22" width="4.05" height="4.11"/><rect class="cls-1" x="101.36" y="78.11" width="4.05" height="4.11"/><rect class="cls-1" x="101.36" y="74" width="4.05" height="4.11"/><rect class="cls-1" x="101.36" y="69.89" width="4.05" height="4.11"/><rect class="cls-1" x="101.36" y="65.79" width="4.05" height="4.11"/><rect class="cls-1" x="101.36" y="61.68" width="4.05" height="4.11"/><rect class="cls-1" x="101.36" y="57.57" width="4.05" height="4.11"/><rect class="cls-1" x="101.36" y="53.46" width="4.05" height="4.11"/><rect class="cls-1" x="101.36" y="49.35" width="4.05" height="4.11"/><rect class="cls-2" x="101.36" y="45.24" width="4.05" height="4.11"/><rect class="cls-2" x="97.3" y="94.55" width="4.05" height="4.11"/><rect class="cls-1" x="97.3" y="90.44" width="4.05" height="4.11"/><rect class="cls-1" x="97.3" y="86.33" width="4.05" height="4.11"/><rect class="cls-3" x="97.3" y="82.22" width="4.05" height="4.11"/><rect class="cls-7" x="97.3" y="78.11" width="4.05" height="4.11"/><rect class="cls-3" x="97.3" y="74" width="4.05" height="4.11"/><rect class="cls-3" x="97.3" y="69.89" width="4.05" height="4.11"/><rect class="cls-7" x="97.3" y="65.79" width="4.05" height="4.11"/><rect class="cls-7" x="97.3" y="61.68" width="4.05" height="4.11"/><rect class="cls-7" x="97.3" y="57.57" width="4.05" height="4.11"/><rect class="cls-3" x="97.3" y="53.46" width="4.05" height="4.11"/><rect class="cls-1" x="97.3" y="49.35" width="4.05" height="4.11"/><rect class="cls-1" x="97.3" y="45.24" width="4.05" height="4.11"/><rect class="cls-2" x="97.3" y="41.13" width="4.05" height="4.11"/><rect class="cls-2" x="93.25" y="98.66" width="4.05" height="4.11"/><rect class="cls-1" x="93.25" y="94.55" width="4.05" height="4.11"/><rect class="cls-1" x="93.25" y="90.44" width="4.05" height="4.11"/><rect class="cls-3" x="93.25" y="86.33" width="4.05" height="4.11"/><rect class="cls-7" x="93.25" y="82.22" width="4.05" height="4.11"/><rect class="cls-7" x="93.25" y="78.11" width="4.05" height="4.11"/><rect class="cls-7" x="93.25" y="74" width="4.05" height="4.11"/><rect class="cls-7" x="93.25" y="69.89" width="4.05" height="4.11"/><rect class="cls-3" x="93.25" y="65.79" width="4.05" height="4.11"/><rect class="cls-3" x="93.25" y="61.68" width="4.05" height="4.11"/><rect class="cls-3" x="93.25" y="57.57" width="4.05" height="4.11"/><rect class="cls-3" x="93.25" y="53.46" width="4.05" height="4.11"/><rect class="cls-3" x="93.25" y="49.35" width="4.05" height="4.11"/><rect class="cls-1" x="93.25" y="45.24" width="4.05" height="4.11"/><rect class="cls-1" x="93.25" y="41.13" width="4.05" height="4.11"/><rect class="cls-2" x="93.25" y="37.02" width="4.05" height="4.11"/><rect class="cls-2" x="89.2" y="102.76" width="4.05" height="4.11"/><rect class="cls-1" x="89.2" y="98.66" width="4.05" height="4.11"/><rect class="cls-1" x="89.2" y="94.55" width="4.05" height="4.11"/><rect class="cls-3" x="89.2" y="90.44" width="4.05" height="4.11"/><rect class="cls-7" x="89.2" y="86.33" width="4.05" height="4.11"/><rect class="cls-7" x="89.2" y="82.22" width="4.05" height="4.11"/><rect class="cls-7" x="89.2" y="78.11" width="4.05" height="4.11"/><rect class="cls-7" x="89.2" y="74" width="4.05" height="4.11"/><rect class="cls-7" x="89.2" y="69.89" width="4.05" height="4.11"/><rect class="cls-7" x="89.2" y="65.79" width="4.05" height="4.11"/><rect class="cls-7" x="89.2" y="61.68" width="4.05" height="4.11"/><rect class="cls-7" x="89.2" y="57.57" width="4.05" height="4.11"/><rect class="cls-7" x="89.2" y="53.46" width="4.05" height="4.11"/><rect class="cls-4" x="89.2" y="49.35" width="4.05" height="4.11"/><rect class="cls-3" x="89.2" y="45.24" width="4.05" height="4.11"/><rect class="cls-1" x="89.2" y="41.13" width="4.05" height="4.11"/><rect class="cls-1" x="89.2" y="37.02" width="4.05" height="4.11"/><rect class="cls-2" x="89.2" y="32.91" width="4.05" height="4.11"/><rect class="cls-2" x="85.15" y="102.76" width="4.05" height="4.11"/><rect class="cls-1" x="85.15" y="98.66" width="4.05" height="4.11"/><rect class="cls-3" x="85.15" y="94.55" width="4.05" height="4.11"/><rect class="cls-7" x="85.15" y="90.44" width="4.05" height="4.11"/><rect class="cls-7" x="85.15" y="86.33" width="4.05" height="4.11"/><rect class="cls-7" x="85.15" y="82.22" width="4.05" height="4.11"/><rect class="cls-7" x="85.15" y="78.11" width="4.05" height="4.11"/><rect class="cls-7" x="85.15" y="74" width="4.05" height="4.11"/><rect class="cls-7" x="85.15" y="69.89" width="4.05" height="4.11"/><rect class="cls-7" x="85.15" y="65.79" width="4.05" height="4.11"/><rect class="cls-4" x="85.15" y="61.68" width="4.05" height="4.11"/><rect class="cls-4" x="85.15" y="57.57" width="4.05" height="4.11"/><rect class="cls-4" x="85.15" y="53.46" width="4.05" height="4.11"/><rect class="cls-6" x="85.15" y="49.35" width="4.05" height="4.11"/><rect class="cls-7" x="85.15" y="45.24" width="4.05" height="4.11"/><rect class="cls-7" x="85.15" y="41.13" width="4.05" height="4.11"/><rect class="cls-1" x="85.15" y="37.02" width="4.05" height="4.11"/><rect class="cls-2" x="85.15" y="32.91" width="4.05" height="4.11"/><rect class="cls-2" x="81.09" y="106.87" width="4.05" height="4.11"/><rect class="cls-1" x="81.09" y="102.76" width="4.05" height="4.11"/><rect class="cls-1" x="81.09" y="98.66" width="4.05" height="4.11"/><rect class="cls-3" x="81.09" y="94.55" width="4.05" height="4.11"/><rect class="cls-7" x="81.09" y="90.44" width="4.05" height="4.11"/><rect class="cls-7" x="81.09" y="86.33" width="4.05" height="4.11"/><rect class="cls-7" x="81.09" y="82.22" width="4.05" height="4.11"/><rect class="cls-7" x="81.09" y="78.11" width="4.05" height="4.11"/><rect class="cls-4" x="81.09" y="74" width="4.05" height="4.11"/><rect class="cls-4" x="81.09" y="69.89" width="4.05" height="4.11"/><rect class="cls-4" x="81.09" y="65.79" width="4.05" height="4.11"/><rect class="cls-5" x="81.09" y="61.68" width="4.05" height="4.11"/><rect class="cls-5" x="81.09" y="57.57" width="4.05" height="4.11"/><rect class="cls-6" x="81.09" y="53.46" width="4.05" height="4.11"/><rect class="cls-7" x="81.09" y="49.35" width="4.05" height="4.11"/><rect class="cls-7" x="81.09" y="45.24" width="4.05" height="4.11"/><rect class="cls-7" x="81.09" y="41.13" width="4.05" height="4.11"/><rect class="cls-1" x="81.09" y="37.02" width="4.05" height="4.11"/><rect class="cls-1" x="81.09" y="32.91" width="4.05" height="4.11"/><rect class="cls-2" x="81.09" y="28.8" width="4.05" height="4.11"/><rect class="cls-2" x="77.04" y="106.87" width="4.05" height="4.11"/><rect class="cls-1" x="77.04" y="102.76" width="4.05" height="4.11"/><rect class="cls-7" x="77.04" y="98.66" width="4.05" height="4.11"/><rect class="cls-7" x="77.04" y="94.55" width="4.05" height="4.11"/><rect class="cls-7" x="77.04" y="90.44" width="4.05" height="4.11"/><rect class="cls-7" x="77.04" y="86.33" width="4.05" height="4.11"/><rect class="cls-7" x="77.04" y="82.22" width="4.05" height="4.11"/><rect class="cls-7" x="77.04" y="78.11" width="4.05" height="4.11"/><rect class="cls-4" x="77.04" y="74" width="4.05" height="4.11"/><rect class="cls-4" x="77.04" y="69.89" width="4.05" height="4.11"/><rect class="cls-4" x="77.04" y="65.79" width="4.05" height="4.11"/><rect class="cls-5" x="77.04" y="61.68" width="4.05" height="4.11"/><rect class="cls-5" x="77.04" y="57.57" width="4.05" height="4.11"/><rect class="cls-6" x="77.04" y="53.46" width="4.05" height="4.11"/><rect class="cls-7" x="77.04" y="49.35" width="4.05" height="4.11"/><rect class="cls-7" x="77.04" y="45.24" width="4.05" height="4.11"/><rect class="cls-7" x="77.04" y="41.13" width="4.05" height="4.11"/><rect class="cls-3" x="77.04" y="37.02" width="4.05" height="4.11"/><rect class="cls-1" x="77.04" y="32.91" width="4.05" height="4.11"/><rect class="cls-2" x="77.04" y="28.8" width="4.05" height="4.11"/><rect class="cls-2" x="72.99" y="106.87" width="4.05" height="4.11"/><rect class="cls-1" x="72.99" y="102.76" width="4.05" height="4.11"/><rect class="cls-7" x="72.99" y="98.66" width="4.05" height="4.11"/><rect class="cls-7" x="72.99" y="94.55" width="4.05" height="4.11"/><rect class="cls-7" x="72.99" y="90.44" width="4.05" height="4.11"/><rect class="cls-7" x="72.99" y="86.33" width="4.05" height="4.11"/><rect class="cls-7" x="72.99" y="82.22" width="4.05" height="4.11"/><rect class="cls-4" x="72.99" y="78.11" width="4.05" height="4.11"/><rect class="cls-5" x="72.99" y="74" width="4.05" height="4.11"/><rect class="cls-5" x="72.99" y="69.89" width="4.05" height="4.11"/><rect class="cls-5" x="72.99" y="65.79" width="4.05" height="4.11"/><rect class="cls-6" x="72.99" y="61.68" width="4.05" height="4.11"/><rect class="cls-6" x="72.99" y="57.57" width="4.05" height="4.11"/><rect class="cls-6" x="72.99" y="53.46" width="4.05" height="4.11"/><rect class="cls-7" x="72.99" y="49.35" width="4.05" height="4.11"/><rect class="cls-7" x="72.99" y="45.24" width="4.05" height="4.11"/><rect class="cls-7" x="72.99" y="41.13" width="4.05" height="4.11"/><rect class="cls-7" x="72.99" y="37.02" width="4.05" height="4.11"/><rect class="cls-1" x="72.99" y="32.91" width="4.05" height="4.11"/><rect class="cls-2" x="72.99" y="28.8" width="4.05" height="4.11"/><rect class="cls-2" x="68.93" y="106.87" width="4.05" height="4.11"/><rect class="cls-1" x="68.93" y="102.76" width="4.05" height="4.11"/><rect class="cls-7" x="68.93" y="98.66" width="4.05" height="4.11"/><rect class="cls-7" x="68.93" y="94.55" width="4.05" height="4.11"/><rect class="cls-7" x="68.93" y="90.44" width="4.05" height="4.11"/><rect class="cls-7" x="68.93" y="86.33" width="4.05" height="4.11"/><rect class="cls-4" x="68.93" y="82.22" width="4.05" height="4.11"/><rect class="cls-1" x="68.93" y="78.11" width="4.05" height="4.11"/><rect class="cls-5" x="68.93" y="74" width="4.05" height="4.11"/><rect class="cls-5" x="68.93" y="69.89" width="4.05" height="4.11"/><rect class="cls-6" x="68.93" y="65.79" width="4.05" height="4.11"/><rect class="cls-6" x="68.93" y="61.68" width="4.05" height="4.11"/><rect class="cls-6" x="68.93" y="57.57" width="4.05" height="4.11"/><rect class="cls-7" x="68.93" y="53.46" width="4.05" height="4.11"/><rect class="cls-7" x="68.93" y="49.35" width="4.05" height="4.11"/><rect class="cls-7" x="68.93" y="45.24" width="4.05" height="4.11"/><rect class="cls-7" x="68.93" y="41.13" width="4.05" height="4.11"/><rect class="cls-3" x="68.93" y="37.02" width="4.05" height="4.11"/><rect class="cls-1" x="68.93" y="32.91" width="4.05" height="4.11"/><rect class="cls-2" x="68.93" y="28.8" width="4.05" height="4.11"/><rect class="cls-2" x="64.88" y="106.87" width="4.05" height="4.11"/><rect class="cls-1" x="64.88" y="102.76" width="4.05" height="4.11"/><rect class="cls-7" x="64.88" y="98.66" width="4.05" height="4.11"/><rect class="cls-7" x="64.88" y="94.55" width="4.05" height="4.11"/><rect class="cls-7" x="64.88" y="90.44" width="4.05" height="4.11"/><rect class="cls-7" x="64.88" y="86.33" width="4.05" height="4.11"/><rect class="cls-4" x="64.88" y="82.22" width="4.05" height="4.11"/><rect class="cls-1" x="64.88" y="78.11" width="4.05" height="4.11"/><rect class="cls-5" x="64.88" y="74" width="4.05" height="4.11"/><rect class="cls-5" x="64.88" y="69.89" width="4.05" height="4.11"/><rect class="cls-6" x="64.88" y="65.79" width="4.05" height="4.11"/><rect class="cls-6" x="64.88" y="61.68" width="4.05" height="4.11"/><rect class="cls-6" x="64.88" y="57.57" width="4.05" height="4.11"/><rect class="cls-7" x="64.88" y="53.46" width="4.05" height="4.11"/><rect class="cls-7" x="64.88" y="49.35" width="4.05" height="4.11"/><rect class="cls-7" x="64.88" y="45.24" width="4.05" height="4.11"/><rect class="cls-7" x="64.88" y="41.13" width="4.05" height="4.11"/><rect class="cls-3" x="64.88" y="37.02" width="4.05" height="4.11"/><rect class="cls-1" x="64.88" y="32.91" width="4.05" height="4.11"/><rect class="cls-2" x="64.88" y="28.8" width="4.05" height="4.11"/><rect class="cls-2" x="60.83" y="106.87" width="4.05" height="4.11"/><rect class="cls-1" x="60.83" y="102.76" width="4.05" height="4.11"/><rect class="cls-7" x="60.83" y="98.66" width="4.05" height="4.11"/><rect class="cls-7" x="60.83" y="94.55" width="4.05" height="4.11"/><rect class="cls-7" x="60.83" y="90.44" width="4.05" height="4.11"/><rect class="cls-7" x="60.83" y="86.33" width="4.05" height="4.11"/><rect class="cls-4" x="60.83" y="82.22" width="4.05" height="4.11"/><rect class="cls-1" x="60.83" y="78.11" width="4.05" height="4.11"/><rect class="cls-1" x="60.83" y="74" width="4.05" height="4.11"/><rect class="cls-1" x="60.83" y="69.89" width="4.05" height="4.11"/><rect class="cls-6" x="60.83" y="65.79" width="4.05" height="4.11"/><rect class="cls-6" x="60.83" y="61.68" width="4.05" height="4.11"/><rect class="cls-6" x="60.83" y="57.57" width="4.05" height="4.11"/><rect class="cls-7" x="60.83" y="53.46" width="4.05" height="4.11"/><rect class="cls-7" x="60.83" y="49.35" width="4.05" height="4.11"/><rect class="cls-7" x="60.83" y="45.24" width="4.05" height="4.11"/><rect class="cls-7" x="60.83" y="41.13" width="4.05" height="4.11"/><rect class="cls-7" x="60.83" y="37.02" width="4.05" height="4.11"/><rect class="cls-1" x="60.83" y="32.91" width="4.05" height="4.11"/><rect class="cls-2" x="60.83" y="28.8" width="4.05" height="4.11"/><rect class="cls-2" x="56.78" y="106.87" width="4.05" height="4.11"/><rect class="cls-1" x="56.78" y="102.76" width="4.05" height="4.11"/><rect class="cls-7" x="56.78" y="98.66" width="4.05" height="4.11"/><rect class="cls-7" x="56.78" y="94.55" width="4.05" height="4.11"/><rect class="cls-7" x="56.78" y="90.44" width="4.05" height="4.11"/><rect class="cls-4" x="56.78" y="86.33" width="4.05" height="4.11"/><rect class="cls-1" x="56.78" y="82.22" width="4.05" height="4.11"/><rect class="cls-1" x="56.78" y="78.11" width="4.05" height="4.11"/><rect class="cls-1" x="56.78" y="74" width="4.05" height="4.11"/><rect class="cls-1" x="56.78" y="69.89" width="4.05" height="4.11"/><rect class="cls-1" x="56.78" y="65.79" width="4.05" height="4.11"/><rect class="cls-7" x="56.78" y="61.68" width="4.05" height="4.11"/><rect class="cls-7" x="56.78" y="57.57" width="4.05" height="4.11"/><rect class="cls-7" x="56.78" y="53.46" width="4.05" height="4.11"/><rect class="cls-7" x="56.78" y="49.35" width="4.05" height="4.11"/><rect class="cls-7" x="56.78" y="45.24" width="4.05" height="4.11"/><rect class="cls-7" x="56.78" y="41.13" width="4.05" height="4.11"/><rect class="cls-7" x="56.78" y="37.02" width="4.05" height="4.11"/><rect class="cls-1" x="56.78" y="32.91" width="4.05" height="4.11"/><rect class="cls-2" x="56.78" y="28.8" width="4.05" height="4.11"/><rect class="cls-2" x="52.73" y="106.87" width="4.05" height="4.11"/><rect class="cls-1" x="52.73" y="102.76" width="4.05" height="4.11"/><rect class="cls-3" x="52.73" y="98.66" width="4.05" height="4.11"/><rect class="cls-7" x="52.73" y="94.55" width="4.05" height="4.11"/><rect class="cls-7" x="52.73" y="90.44" width="4.05" height="4.11"/><rect class="cls-4" x="52.73" y="86.33" width="4.05" height="4.11"/><rect class="cls-1" x="52.73" y="82.22" width="4.05" height="4.11"/><rect class="cls-1" x="52.73" y="78.11" width="4.05" height="4.11"/><rect class="cls-1" x="52.73" y="74" width="4.05" height="4.11"/><rect class="cls-7" x="52.73" y="69.89" width="4.05" height="4.11"/><rect class="cls-7" x="52.73" y="65.79" width="4.05" height="4.11"/><rect class="cls-7" x="52.73" y="61.68" width="4.05" height="4.11"/><rect class="cls-7" x="52.73" y="57.57" width="4.05" height="4.11"/><rect class="cls-7" x="52.73" y="53.46" width="4.05" height="4.11"/><rect class="cls-7" x="52.73" y="49.35" width="4.05" height="4.11"/><rect class="cls-7" x="52.73" y="45.24" width="4.05" height="4.11"/><rect class="cls-7" x="52.73" y="41.13" width="4.05" height="4.11"/><rect class="cls-3" x="52.73" y="37.02" width="4.05" height="4.11"/><rect class="cls-1" x="52.73" y="32.91" width="4.05" height="4.11"/><rect class="cls-2" x="52.73" y="28.8" width="4.05" height="4.11"/><rect class="cls-2" x="48.67" y="106.87" width="4.05" height="4.11"/><rect class="cls-1" x="48.67" y="102.76" width="4.05" height="4.11"/><rect class="cls-7" x="48.67" y="98.66" width="4.05" height="4.11"/><rect class="cls-7" x="48.67" y="94.55" width="4.05" height="4.11"/><rect class="cls-7" x="48.67" y="90.44" width="4.05" height="4.11"/><rect class="cls-4" x="48.67" y="86.33" width="4.05" height="4.11"/><rect class="cls-1" x="48.67" y="82.22" width="4.05" height="4.11"/><rect class="cls-1" x="48.67" y="78.11" width="4.05" height="4.11"/><rect class="cls-7" x="48.67" y="74" width="4.05" height="4.11"/><rect class="cls-7" x="48.67" y="69.89" width="4.05" height="4.11"/><rect class="cls-7" x="48.67" y="65.79" width="4.05" height="4.11"/><rect class="cls-7" x="48.67" y="61.68" width="4.05" height="4.11"/><rect class="cls-7" x="48.67" y="57.57" width="4.05" height="4.11"/><rect class="cls-7" x="48.67" y="53.46" width="4.05" height="4.11"/><rect class="cls-7" x="48.67" y="49.35" width="4.05" height="4.11"/><rect class="cls-7" x="48.67" y="45.24" width="4.05" height="4.11"/><rect class="cls-7" x="48.67" y="41.13" width="4.05" height="4.11"/><rect class="cls-3" x="48.67" y="37.02" width="4.05" height="4.11"/><rect class="cls-1" x="48.67" y="32.91" width="4.05" height="4.11"/><rect class="cls-2" x="48.67" y="28.8" width="4.05" height="4.11"/><rect class="cls-2" x="44.62" y="106.87" width="4.05" height="4.11"/><rect class="cls-1" x="44.62" y="102.76" width="4.05" height="4.11"/><rect class="cls-1" x="44.62" y="98.66" width="4.05" height="4.11"/><rect class="cls-4" x="44.62" y="94.55" width="4.05" height="4.11"/><rect class="cls-7" x="44.62" y="90.44" width="4.05" height="4.11"/><rect class="cls-1" x="44.62" y="86.33" width="4.05" height="4.11"/><rect class="cls-7" x="44.62" y="82.22" width="4.05" height="4.11"/><rect class="cls-7" x="44.62" y="78.11" width="4.05" height="4.11"/><rect class="cls-7" x="44.62" y="74" width="4.05" height="4.11"/><rect class="cls-7" x="44.62" y="69.89" width="4.05" height="4.11"/><rect class="cls-7" x="44.62" y="65.79" width="4.05" height="4.11"/><rect class="cls-7" x="44.62" y="61.68" width="4.05" height="4.11"/><rect class="cls-7" x="44.62" y="57.57" width="4.05" height="4.11"/><rect class="cls-7" x="44.62" y="53.46" width="4.05" height="4.11"/><rect class="cls-7" x="44.62" y="49.35" width="4.05" height="4.11"/><rect class="cls-7" x="44.62" y="45.24" width="4.05" height="4.11"/><rect class="cls-7" x="44.62" y="41.13" width="4.05" height="4.11"/><rect class="cls-1" x="44.62" y="37.02" width="4.05" height="4.11"/><rect class="cls-1" x="44.62" y="32.91" width="4.05" height="4.11"/><rect class="cls-2" x="44.62" y="28.8" width="4.05" height="4.11"/><rect class="cls-2" x="40.57" y="102.76" width="4.05" height="4.11"/><rect class="cls-1" x="40.57" y="98.66" width="4.05" height="4.11"/><rect class="cls-3" x="40.57" y="94.55" width="4.05" height="4.11"/><rect class="cls-7" x="40.57" y="90.44" width="4.05" height="4.11"/><rect class="cls-7" x="40.57" y="86.33" width="4.05" height="4.11"/><rect class="cls-7" x="40.57" y="82.22" width="4.05" height="4.11"/><rect class="cls-7" x="40.57" y="78.11" width="4.05" height="4.11"/><rect class="cls-7" x="40.57" y="74" width="4.05" height="4.11"/><rect class="cls-7" x="40.57" y="69.89" width="4.05" height="4.11"/><rect class="cls-7" x="40.57" y="65.79" width="4.05" height="4.11"/><rect class="cls-7" x="40.57" y="61.68" width="4.05" height="4.11"/><rect class="cls-7" x="40.57" y="57.57" width="4.05" height="4.11"/><rect class="cls-7" x="40.57" y="53.46" width="4.05" height="4.11"/><rect class="cls-7" x="40.57" y="49.35" width="4.05" height="4.11"/><rect class="cls-3" x="40.57" y="45.24" width="4.05" height="4.11"/><rect class="cls-3" x="40.57" y="41.13" width="4.05" height="4.11"/><rect class="cls-1" x="40.57" y="37.02" width="4.05" height="4.11"/><rect class="cls-2" x="40.57" y="32.91" width="4.05" height="4.11"/><rect class="cls-2" x="36.52" y="102.76" width="4.05" height="4.11"/><rect class="cls-1" x="36.52" y="98.66" width="4.05" height="4.11"/><rect class="cls-1" x="36.52" y="94.55" width="4.05" height="4.11"/><rect class="cls-3" x="36.52" y="90.44" width="4.05" height="4.11"/><rect class="cls-7" x="36.52" y="86.33" width="4.05" height="4.11"/><rect class="cls-7" x="36.52" y="82.22" width="4.05" height="4.11"/><rect class="cls-7" x="36.52" y="78.11" width="4.05" height="4.11"/><rect class="cls-7" x="36.52" y="74" width="4.05" height="4.11"/><rect class="cls-7" x="36.52" y="69.89" width="4.05" height="4.11"/><rect class="cls-7" x="36.52" y="65.79" width="4.05" height="4.11"/><rect class="cls-7" x="36.52" y="61.68" width="4.05" height="4.11"/><rect class="cls-7" x="36.52" y="57.57" width="4.05" height="4.11"/><rect class="cls-7" x="36.52" y="53.46" width="4.05" height="4.11"/><rect class="cls-7" x="36.52" y="49.35" width="4.05" height="4.11"/><rect class="cls-3" x="36.52" y="45.24" width="4.05" height="4.11"/><rect class="cls-1" x="36.52" y="41.13" width="4.05" height="4.11"/><rect class="cls-1" x="36.52" y="37.02" width="4.05" height="4.11"/><rect class="cls-2" x="36.52" y="32.91" width="4.05" height="4.11"/><rect class="cls-2" x="32.46" y="98.66" width="4.05" height="4.11"/><rect class="cls-1" x="32.46" y="94.55" width="4.05" height="4.11"/><rect class="cls-1" x="32.46" y="90.44" width="4.05" height="4.11"/><rect class="cls-3" x="32.46" y="86.33" width="4.05" height="4.11"/><rect class="cls-3" x="32.46" y="82.22" width="4.05" height="4.11"/><rect class="cls-7" x="32.46" y="78.11" width="4.05" height="4.11"/><rect class="cls-7" x="32.46" y="74" width="4.05" height="4.11"/><rect class="cls-7" x="32.46" y="69.89" width="4.05" height="4.11"/><rect class="cls-3" x="32.46" y="65.79" width="4.05" height="4.11"/><rect class="cls-7" x="32.46" y="61.68" width="4.05" height="4.11"/><rect class="cls-7" x="32.46" y="57.57" width="4.05" height="4.11"/><rect class="cls-3" x="32.46" y="53.46" width="4.05" height="4.11"/><rect class="cls-3" x="32.46" y="49.35" width="4.05" height="4.11"/><rect class="cls-1" x="32.46" y="45.24" width="4.05" height="4.11"/><rect class="cls-1" x="32.46" y="41.13" width="4.05" height="4.11"/><rect class="cls-2" x="32.46" y="37.02" width="4.05" height="4.11"/><rect class="cls-2" x="28.41" y="94.55" width="4.05" height="4.11"/><rect class="cls-1" x="28.41" y="90.44" width="4.05" height="4.11"/><rect class="cls-1" x="28.41" y="86.33" width="4.05" height="4.11"/><rect class="cls-3" x="28.41" y="82.22" width="4.05" height="4.11"/><rect class="cls-3" x="28.41" y="78.11" width="4.05" height="4.11"/><rect class="cls-3" x="28.41" y="74" width="4.05" height="4.11"/><rect class="cls-3" x="28.41" y="69.89" width="4.05" height="4.11"/><rect class="cls-3" x="28.41" y="65.79" width="4.05" height="4.11"/><rect class="cls-3" x="28.41" y="61.68" width="4.05" height="4.11"/><rect class="cls-3" x="28.41" y="57.57" width="4.05" height="4.11"/><rect class="cls-3" x="28.41" y="53.46" width="4.05" height="4.11"/><rect class="cls-1" x="28.41" y="49.35" width="4.05" height="4.11"/><rect class="cls-1" x="28.41" y="45.24" width="4.05" height="4.11"/><rect class="cls-2" x="28.41" y="41.13" width="4.05" height="4.11"/><rect class="cls-2" x="24.36" y="90.44" width="4.05" height="4.11"/><rect class="cls-1" x="24.36" y="86.33" width="4.05" height="4.11"/><rect class="cls-1" x="24.36" y="82.22" width="4.05" height="4.11"/><rect class="cls-1" x="24.36" y="78.11" width="4.05" height="4.11"/><rect class="cls-1" x="24.36" y="74" width="4.05" height="4.11"/><rect class="cls-1" x="24.36" y="69.89" width="4.05" height="4.11"/><rect class="cls-1" x="24.36" y="65.79" width="4.05" height="4.11"/><rect class="cls-1" x="24.36" y="61.68" width="4.05" height="4.11"/><rect class="cls-1" x="24.36" y="57.57" width="4.05" height="4.11"/><rect class="cls-1" x="24.36" y="53.46" width="4.05" height="4.11"/><rect class="cls-1" x="24.36" y="49.35" width="4.05" height="4.11"/><rect class="cls-2" x="24.36" y="45.24" width="4.05" height="4.11"/><rect class="cls-2" x="20.3" y="86.33" width="4.05" height="4.11"/><rect class="cls-2" x="20.3" y="82.22" width="4.05" height="4.11"/><rect class="cls-2" x="20.3" y="78.11" width="4.05" height="4.11"/><rect class="cls-2" x="20.3" y="74" width="4.05" height="4.11"/><rect class="cls-2" x="20.3" y="69.89" width="4.05" height="4.11"/><rect class="cls-2" x="20.3" y="65.79" width="4.05" height="4.11"/><rect class="cls-2" x="20.3" y="61.68" width="4.05" height="4.11"/><rect class="cls-2" x="20.3" y="57.57" width="4.05" height="4.11"/><rect class="cls-2" x="20.3" y="53.46" width="4.05" height="4.11"/><rect class="cls-2" x="20.3" y="49.35" width="4.05" height="4.11"/></g></g></svg>