<?xml version="1.0" encoding="UTF-8"?><svg id="Calque_2" xmlns="http://www.w3.org/2000/svg" viewBox="0 0 217.81 234.92"><defs><style>.cls-1{fill:#fff;}.cls-2{fill:#f49b3c;}.cls-3{fill:#e6408d;}.cls-4{fill:#45529d;}.cls-5{fill:#694f9a;}.cls-6{fill:#f0e647;}.cls-7{fill:#90569c;}.cls-8{fill:#ed763e;}.cls-9{fill:#efe760;}.cls-10{fill:#eb6636;}.cls-11{fill:#e84b38;}.cls-12{fill:#c55196;}</style></defs><g id="Calque_1-2"><g><rect class="cls-3" x="178.17" y="156.6" width="6.6" height="7.11"/><rect class="cls-3" x="178.17" y="149.48" width="6.6" height="7.12"/><rect class="cls-3" x="178.17" y="142.36" width="6.6" height="7.11"/><rect class="cls-12" x="178.17" y="135.25" width="6.6" height="7.11"/><rect class="cls-12" x="178.17" y="128.13" width="6.6" height="7.11"/><rect class="cls-12" x="178.17" y="121.02" width="6.6" height="7.11"/><rect class="cls-7" x="178.17" y="113.9" width="6.6" height="7.12"/><rect class="cls-7" x="178.17" y="106.79" width="6.6" height="7.11"/><rect class="cls-7" x="178.17" y="99.67" width="6.6" height="7.11"/><rect class="cls-5" x="178.17" y="92.56" width="6.6" height="7.11"/><rect class="cls-5" x="178.17" y="85.44" width="6.6" height="7.11"/><rect class="cls-4" x="178.17" y="78.32" width="6.6" height="7.12"/><rect class="cls-4" x="178.17" y="71.21" width="6.6" height="7.11"/><rect class="cls-4" x="178.17" y="64.09" width="6.6" height="7.11"/><rect class="cls-3" x="171.57" y="163.71" width="6.6" height="7.11"/><rect class="cls-3" x="171.57" y="156.6" width="6.6" height="7.11"/><rect class="cls-3" x="171.57" y="149.48" width="6.6" height="7.12"/><rect class="cls-3" x="171.57" y="142.36" width="6.6" height="7.11"/><rect class="cls-12" x="171.57" y="135.25" width="6.6" height="7.11"/><rect class="cls-12" x="171.57" y="128.13" width="6.6" height="7.11"/><rect class="cls-12" x="171.57" y="121.02" width="6.6" height="7.11"/><rect class="cls-12" x="171.57" y="113.9" width="6.6" height="7.12"/><rect class="cls-7" x="171.57" y="106.79" width="6.6" height="7.11"/><rect class="cls-7" x="171.57" y="99.67" width="6.6" height="7.11"/><rect class="cls-5" x="171.57" y="92.56" width="6.6" height="7.11"/><rect class="cls-5" x="171.57" y="85.44" width="6.6" height="7.11"/><rect class="cls-5" x="171.57" y="78.32" width="6.6" height="7.12"/><rect class="cls-4" x="171.57" y="71.21" width="6.6" height="7.11"/><rect class="cls-4" x="171.57" y="64.09" width="6.6" height="7.11"/><rect class="cls-4" x="171.57" y="56.98" width="6.6" height="7.11"/><rect class="cls-11" x="164.98" y="170.83" width="6.6" height="7.11"/><rect class="cls-11" x="164.98" y="163.71" width="6.6" height="7.11"/><rect class="cls-11" x="164.98" y="156.6" width="6.6" height="7.11"/><rect class="cls-3" x="164.98" y="149.48" width="6.6" height="7.12"/><rect class="cls-3" x="164.98" y="142.36" width="6.6" height="7.11"/><rect class="cls-3" x="164.98" y="135.25" width="6.6" height="7.11"/><rect class="cls-12" x="164.98" y="128.13" width="6.6" height="7.11"/><rect class="cls-12" x="164.98" y="121.02" width="6.6" height="7.11"/><rect class="cls-12" x="164.98" y="113.9" width="6.6" height="7.12"/><rect class="cls-7" x="164.98" y="106.79" width="6.6" height="7.11"/><rect class="cls-7" x="164.98" y="99.67" width="6.6" height="7.11"/><rect class="cls-7" x="164.98" y="92.56" width="6.6" height="7.11"/><rect class="cls-5" x="164.98" y="85.44" width="6.6" height="7.11"/><rect class="cls-5" x="164.98" y="78.32" width="6.6" height="7.12"/><rect class="cls-5" x="164.98" y="71.21" width="6.6" height="7.11"/><rect class="cls-4" x="164.98" y="64.09" width="6.6" height="7.11"/><rect class="cls-4" x="164.98" y="56.98" width="6.6" height="7.11"/><rect class="cls-4" x="164.98" y="49.86" width="6.6" height="7.11"/><rect class="cls-11" x="158.38" y="177.94" width="6.6" height="7.11"/><rect class="cls-11" x="158.38" y="170.83" width="6.6" height="7.11"/><rect class="cls-11" x="158.38" y="163.71" width="6.6" height="7.11"/><rect class="cls-11" x="158.38" y="156.6" width="6.6" height="7.11"/><rect class="cls-3" x="158.38" y="149.48" width="6.6" height="7.12"/><rect class="cls-3" x="158.38" y="142.36" width="6.6" height="7.11"/><rect class="cls-3" x="158.38" y="135.25" width="6.6" height="7.11"/><rect class="cls-3" x="158.38" y="128.13" width="6.6" height="7.11"/><rect class="cls-12" x="158.38" y="121.02" width="6.6" height="7.11"/><rect class="cls-12" x="158.38" y="113.9" width="6.6" height="7.12"/><rect class="cls-12" x="158.38" y="106.79" width="6.6" height="7.11"/><rect class="cls-7" x="158.38" y="99.67" width="6.6" height="7.11"/><rect class="cls-5" x="158.38" y="92.56" width="6.6" height="7.11"/><rect class="cls-5" x="158.38" y="85.44" width="6.6" height="7.11"/><rect class="cls-5" x="158.38" y="78.32" width="6.6" height="7.12"/><rect class="cls-5" x="158.38" y="71.21" width="6.6" height="7.11"/><rect class="cls-5" x="158.38" y="64.09" width="6.6" height="7.11"/><rect class="cls-4" x="158.38" y="56.98" width="6.6" height="7.11"/><rect class="cls-4" x="158.38" y="49.86" width="6.6" height="7.11"/><rect class="cls-4" x="158.38" y="42.74" width="6.6" height="7.12"/><rect class="cls-10" x="151.78" y="177.94" width="6.6" height="7.11"/><rect class="cls-10" x="151.78" y="170.83" width="6.6" height="7.11"/><rect class="cls-11" x="151.78" y="163.71" width="6.6" height="7.11"/><rect class="cls-11" x="151.78" y="156.6" width="6.6" height="7.11"/><rect class="cls-1" x="151.78" y="149.48" width="6.6" height="7.12"/><rect class="cls-1" x="151.78" y="142.36" width="6.6" height="7.11"/><rect class="cls-1" x="151.78" y="135.25" width="6.6" height="7.11"/><rect class="cls-1" x="151.78" y="128.13" width="6.6" height="7.11"/><rect class="cls-1" x="151.78" y="121.02" width="6.6" height="7.11"/><rect class="cls-1" x="151.78" y="113.9" width="6.6" height="7.12"/><rect class="cls-1" x="151.78" y="106.79" width="6.6" height="7.11"/><rect class="cls-1" x="151.78" y="99.67" width="6.6" height="7.11"/><rect class="cls-1" x="151.78" y="92.56" width="6.6" height="7.11"/><rect class="cls-1" x="151.78" y="85.44" width="6.6" height="7.11"/><rect class="cls-1" x="151.78" y="78.32" width="6.6" height="7.12"/><rect class="cls-1" x="151.78" y="71.21" width="6.6" height="7.11"/><rect class="cls-5" x="151.78" y="64.09" width="6.6" height="7.11"/><rect class="cls-4" x="151.78" y="56.98" width="6.6" height="7.11"/><rect class="cls-4" x="151.78" y="49.86" width="6.6" height="7.11"/><rect class="cls-4" x="151.78" y="42.74" width="6.6" height="7.12"/><rect class="cls-8" x="145.19" y="177.94" width="6.6" height="7.11"/><rect class="cls-8" x="145.19" y="170.83" width="6.6" height="7.11"/><rect class="cls-10" x="145.19" y="163.71" width="6.6" height="7.11"/><rect class="cls-1" x="145.19" y="156.6" width="6.6" height="7.11"/><rect class="cls-11" x="145.19" y="149.48" width="6.6" height="7.12"/><rect class="cls-11" x="145.19" y="142.36" width="6.6" height="7.11"/><rect class="cls-11" x="145.19" y="135.25" width="6.6" height="7.11"/><rect class="cls-11" x="145.19" y="128.13" width="6.6" height="7.11"/><rect class="cls-3" x="145.19" y="121.02" width="6.6" height="7.11"/><rect class="cls-12" x="145.19" y="113.9" width="6.6" height="7.12"/><rect class="cls-12" x="145.19" y="106.79" width="6.6" height="7.11"/><rect class="cls-7" x="145.19" y="99.67" width="6.6" height="7.11"/><rect class="cls-7" x="145.19" y="92.56" width="6.6" height="7.11"/><rect class="cls-7" x="145.19" y="85.44" width="6.6" height="7.11"/><rect class="cls-5" x="145.19" y="78.32" width="6.6" height="7.12"/><rect class="cls-5" x="145.19" y="71.21" width="6.6" height="7.11"/><rect class="cls-1" x="145.19" y="64.09" width="6.6" height="7.11"/><rect class="cls-4" x="145.19" y="56.98" width="6.6" height="7.11"/><rect class="cls-4" x="145.19" y="49.86" width="6.6" height="7.11"/><rect class="cls-4" x="145.19" y="42.74" width="6.6" height="7.12"/><rect class="cls-2" x="138.59" y="177.94" width="6.6" height="7.11"/><rect class="cls-8" x="138.59" y="170.83" width="6.6" height="7.11"/><rect class="cls-1" x="138.59" y="163.71" width="6.6" height="7.11"/><rect class="cls-8" x="138.59" y="156.6" width="6.6" height="7.11"/><rect class="cls-10" x="138.59" y="149.48" width="6.6" height="7.12"/><rect class="cls-10" x="138.59" y="142.36" width="6.6" height="7.11"/><rect class="cls-11" x="138.59" y="135.25" width="6.6" height="7.11"/><rect class="cls-11" x="138.59" y="128.13" width="6.6" height="7.11"/><rect class="cls-3" x="138.59" y="121.02" width="6.6" height="7.11"/><rect class="cls-3" x="138.59" y="113.9" width="6.6" height="7.12"/><rect class="cls-7" x="138.59" y="106.79" width="6.6" height="7.11"/><rect class="cls-7" x="138.59" y="99.67" width="6.6" height="7.11"/><rect class="cls-7" x="138.59" y="92.56" width="6.6" height="7.11"/><rect class="cls-7" x="138.59" y="85.44" width="6.6" height="7.11"/><rect class="cls-1" x="138.59" y="78.32" width="6.6" height="7.12"/><rect class="cls-5" x="138.59" y="71.21" width="6.6" height="7.11"/><rect class="cls-4" x="138.59" y="64.09" width="6.6" height="7.11"/><rect class="cls-1" x="138.59" y="56.98" width="6.6" height="7.11"/><rect class="cls-4" x="138.59" y="49.86" width="6.6" height="7.11"/><rect class="cls-4" x="138.59" y="42.74" width="6.6" height="7.12"/><rect class="cls-2" x="131.99" y="177.94" width="6.6" height="7.11"/><rect class="cls-2" x="131.99" y="170.83" width="6.6" height="7.11"/><rect class="cls-1" x="131.99" y="163.71" width="6.6" height="7.11"/><rect class="cls-8" x="131.99" y="156.6" width="6.6" height="7.11"/><rect class="cls-10" x="131.99" y="149.48" width="6.6" height="7.12"/><rect class="cls-10" x="131.99" y="142.36" width="6.6" height="7.11"/><rect class="cls-11" x="131.99" y="135.25" width="6.6" height="7.11"/><rect class="cls-11" x="131.99" y="128.13" width="6.6" height="7.11"/><rect class="cls-3" x="131.99" y="121.02" width="6.6" height="7.11"/><rect class="cls-3" x="131.99" y="113.9" width="6.6" height="7.12"/><rect class="cls-3" x="131.99" y="106.79" width="6.6" height="7.11"/><rect class="cls-12" x="131.99" y="99.67" width="6.6" height="7.11"/><rect class="cls-7" x="131.99" y="92.56" width="6.6" height="7.11"/><rect class="cls-1" x="131.99" y="85.44" width="6.6" height="7.11"/><rect class="cls-1" x="131.99" y="78.32" width="6.6" height="7.12"/><rect class="cls-1" x="131.99" y="71.21" width="6.6" height="7.11"/><rect class="cls-4" x="131.99" y="64.09" width="6.6" height="7.11"/><rect class="cls-1" x="131.99" y="56.98" width="6.6" height="7.11"/><rect class="cls-4" x="131.99" y="49.86" width="6.6" height="7.11"/><rect class="cls-4" x="131.99" y="42.74" width="6.6" height="7.12"/><rect class="cls-2" x="125.39" y="177.94" width="6.6" height="7.11"/><rect class="cls-2" x="125.39" y="170.83" width="6.6" height="7.11"/><rect class="cls-1" x="125.39" y="163.71" width="6.6" height="7.11"/><rect class="cls-8" x="125.39" y="156.6" width="6.6" height="7.11"/><rect class="cls-8" x="125.39" y="149.48" width="6.6" height="7.12"/><rect class="cls-8" x="125.39" y="142.36" width="6.6" height="7.11"/><rect class="cls-10" x="125.39" y="135.25" width="6.6" height="7.11"/><rect class="cls-1" x="125.39" y="128.13" width="6.6" height="7.11"/><rect class="cls-1" x="125.39" y="121.02" width="6.6" height="7.11"/><rect class="cls-1" x="125.39" y="113.9" width="6.6" height="7.12"/><rect class="cls-1" x="125.39" y="106.79" width="6.6" height="7.11"/><rect class="cls-1" x="125.39" y="99.67" width="6.6" height="7.11"/><rect class="cls-7" x="125.39" y="92.56" width="6.6" height="7.11"/><rect class="cls-7" x="125.39" y="85.44" width="6.6" height="7.11"/><rect class="cls-1" x="125.39" y="78.32" width="6.6" height="7.12"/><rect class="cls-5" x="125.39" y="71.21" width="6.6" height="7.11"/><rect class="cls-4" x="125.39" y="64.09" width="6.6" height="7.11"/><rect class="cls-1" x="125.39" y="56.98" width="6.6" height="7.11"/><rect class="cls-4" x="125.39" y="49.86" width="6.6" height="7.11"/><rect class="cls-4" x="125.39" y="42.74" width="6.6" height="7.12"/><rect class="cls-2" x="118.8" y="177.94" width="6.6" height="7.11"/><rect class="cls-2" x="118.8" y="170.83" width="6.6" height="7.11"/><rect class="cls-1" x="118.8" y="163.71" width="6.6" height="7.11"/><rect class="cls-8" x="118.8" y="156.6" width="6.6" height="7.11"/><rect class="cls-8" x="118.8" y="149.48" width="6.6" height="7.12"/><rect class="cls-8" x="118.8" y="142.36" width="6.6" height="7.11"/><rect class="cls-1" x="118.8" y="135.25" width="6.6" height="7.11"/><rect class="cls-1" x="118.8" y="128.13" width="6.6" height="7.11"/><rect class="cls-3" x="118.8" y="121.02" width="6.6" height="7.11"/><rect class="cls-3" x="118.8" y="113.9" width="6.6" height="7.12"/><rect class="cls-12" x="118.8" y="106.79" width="6.6" height="7.11"/><rect class="cls-1" x="118.8" y="99.67" width="6.6" height="7.11"/><rect class="cls-1" x="118.8" y="92.56" width="6.6" height="7.11"/><rect class="cls-7" x="118.8" y="85.44" width="6.6" height="7.11"/><rect class="cls-7" x="118.8" y="78.32" width="6.6" height="7.12"/><rect class="cls-5" x="118.8" y="71.21" width="6.6" height="7.11"/><rect class="cls-4" x="118.8" y="64.09" width="6.6" height="7.11"/><rect class="cls-1" x="118.8" y="56.98" width="6.6" height="7.11"/><rect class="cls-4" x="118.8" y="49.86" width="6.6" height="7.11"/><rect class="cls-4" x="118.8" y="42.74" width="6.6" height="7.12"/><rect class="cls-6" x="112.2" y="177.94" width="6.6" height="7.11"/><rect class="cls-2" x="112.2" y="170.83" width="6.6" height="7.11"/><rect class="cls-1" x="112.2" y="163.71" width="6.6" height="7.11"/><rect class="cls-8" x="112.2" y="156.6" width="6.6" height="7.11"/><rect class="cls-8" x="112.2" y="149.48" width="6.6" height="7.12"/><rect class="cls-8" x="112.2" y="142.36" width="6.6" height="7.11"/><rect class="cls-1" x="112.2" y="135.25" width="6.6" height="7.11"/><rect class="cls-11" x="112.2" y="128.13" width="6.6" height="7.11"/><rect class="cls-3" x="112.2" y="121.02" width="6.6" height="7.11"/><rect class="cls-3" x="112.2" y="113.9" width="6.6" height="7.12"/><rect class="cls-12" x="112.2" y="106.79" width="6.6" height="7.11"/><rect class="cls-12" x="112.2" y="99.67" width="6.6" height="7.11"/><rect class="cls-1" x="112.2" y="92.56" width="6.6" height="7.11"/><rect class="cls-7" x="112.2" y="85.44" width="6.6" height="7.11"/><rect class="cls-7" x="112.2" y="78.32" width="6.6" height="7.12"/><rect class="cls-5" x="112.2" y="71.21" width="6.6" height="7.11"/><rect class="cls-4" x="112.2" y="64.09" width="6.6" height="7.11"/><rect class="cls-1" x="112.2" y="56.98" width="6.6" height="7.11"/><rect class="cls-4" x="112.2" y="49.86" width="6.6" height="7.11"/><rect class="cls-4" x="112.2" y="42.74" width="6.6" height="7.12"/><rect class="cls-9" x="105.6" y="177.94" width="6.6" height="7.11"/><rect class="cls-6" x="105.6" y="170.83" width="6.6" height="7.11"/><rect class="cls-1" x="105.6" y="163.71" width="6.6" height="7.11"/><rect class="cls-8" x="105.6" y="156.6" width="6.6" height="7.11"/><rect class="cls-8" x="105.6" y="149.48" width="6.6" height="7.12"/><rect class="cls-8" x="105.6" y="142.36" width="6.6" height="7.11"/><rect class="cls-1" x="105.6" y="135.25" width="6.6" height="7.11"/><rect class="cls-11" x="105.6" y="128.13" width="6.6" height="7.11"/><rect class="cls-11" x="105.6" y="121.02" width="6.6" height="7.11"/><rect class="cls-3" x="105.6" y="113.9" width="6.6" height="7.12"/><rect class="cls-12" x="105.6" y="106.79" width="6.6" height="7.11"/><rect class="cls-12" x="105.6" y="99.67" width="6.6" height="7.11"/><rect class="cls-1" x="105.6" y="92.56" width="6.6" height="7.11"/><rect class="cls-7" x="105.6" y="85.44" width="6.6" height="7.11"/><rect class="cls-5" x="105.6" y="78.32" width="6.6" height="7.12"/><rect class="cls-5" x="105.6" y="71.21" width="6.6" height="7.11"/><rect class="cls-4" x="105.6" y="64.09" width="6.6" height="7.11"/><rect class="cls-1" x="105.6" y="56.98" width="6.6" height="7.11"/><rect class="cls-4" x="105.6" y="49.86" width="6.6" height="7.11"/><rect class="cls-4" x="105.6" y="42.74" width="6.6" height="7.12"/><rect class="cls-9" x="99.01" y="177.94" width="6.6" height="7.11"/><rect class="cls-6" x="99.01" y="170.83" width="6.6" height="7.11"/><rect class="cls-1" x="99.01" y="163.71" width="6.6" height="7.11"/><rect class="cls-8" x="99.01" y="156.6" width="6.6" height="7.11"/><rect class="cls-8" x="99.01" y="149.48" width="6.6" height="7.12"/><rect class="cls-8" x="99.01" y="142.36" width="6.6" height="7.11"/><rect class="cls-1" x="99.01" y="135.25" width="6.6" height="7.11"/><rect class="cls-11" x="99.01" y="128.13" width="6.6" height="7.11"/><rect class="cls-11" x="99.01" y="121.02" width="6.6" height="7.11"/><rect class="cls-3" x="99.01" y="113.9" width="6.6" height="7.12"/><rect class="cls-3" x="99.01" y="106.79" width="6.6" height="7.11"/><rect class="cls-12" x="99.01" y="99.67" width="6.6" height="7.11"/><rect class="cls-1" x="99.01" y="92.56" width="6.6" height="7.11"/><rect class="cls-7" x="99.01" y="85.44" width="6.6" height="7.11"/><rect class="cls-5" x="99.01" y="78.32" width="6.6" height="7.12"/><rect class="cls-5" x="99.01" y="71.21" width="6.6" height="7.11"/><rect class="cls-4" x="99.01" y="64.09" width="6.6" height="7.11"/><rect class="cls-1" x="99.01" y="56.98" width="6.6" height="7.11"/><rect class="cls-4" x="99.01" y="49.86" width="6.6" height="7.11"/><rect class="cls-4" x="99.01" y="42.74" width="6.6" height="7.12"/><rect class="cls-9" x="92.41" y="177.94" width="6.6" height="7.11"/><rect class="cls-6" x="92.41" y="170.83" width="6.6" height="7.11"/><rect class="cls-1" x="92.41" y="163.71" width="6.6" height="7.11"/><rect class="cls-2" x="92.41" y="156.6" width="6.6" height="7.11"/><rect class="cls-8" x="92.41" y="149.48" width="6.6" height="7.12"/><rect class="cls-8" x="92.41" y="142.36" width="6.6" height="7.11"/><rect class="cls-1" x="92.41" y="135.25" width="6.6" height="7.11"/><rect class="cls-1" x="92.41" y="128.13" width="6.6" height="7.11"/><rect class="cls-11" x="92.41" y="121.02" width="6.6" height="7.11"/><rect class="cls-3" x="92.41" y="113.9" width="6.6" height="7.12"/><rect class="cls-3" x="92.41" y="106.79" width="6.6" height="7.11"/><rect class="cls-1" x="92.41" y="99.67" width="6.6" height="7.11"/><rect class="cls-1" x="92.41" y="92.56" width="6.6" height="7.11"/><rect class="cls-7" x="92.41" y="85.44" width="6.6" height="7.11"/><rect class="cls-7" x="92.41" y="78.32" width="6.6" height="7.12"/><rect class="cls-5" x="92.41" y="71.21" width="6.6" height="7.11"/><rect class="cls-4" x="92.41" y="64.09" width="6.6" height="7.11"/><rect class="cls-1" x="92.41" y="56.98" width="6.6" height="7.11"/><rect class="cls-4" x="92.41" y="49.86" width="6.6" height="7.11"/><rect class="cls-4" x="92.41" y="42.74" width="6.6" height="7.12"/><rect class="cls-9" x="85.82" y="177.94" width="6.6" height="7.11"/><rect class="cls-6" x="85.82" y="170.83" width="6.6" height="7.11"/><rect class="cls-1" x="85.82" y="163.71" width="6.6" height="7.11"/><rect class="cls-2" x="85.82" y="156.6" width="6.6" height="7.11"/><rect class="cls-8" x="85.82" y="149.48" width="6.6" height="7.12"/><rect class="cls-8" x="85.82" y="142.36" width="6.6" height="7.11"/><rect class="cls-10" x="85.82" y="135.25" width="6.6" height="7.11"/><rect class="cls-1" x="85.82" y="128.13" width="6.6" height="7.11"/><rect class="cls-1" x="85.82" y="121.02" width="6.6" height="7.11"/><rect class="cls-1" x="85.82" y="113.9" width="6.6" height="7.12"/><rect class="cls-1" x="85.82" y="106.79" width="6.6" height="7.11"/><rect class="cls-1" x="85.82" y="99.67" width="6.6" height="7.11"/><rect class="cls-12" x="85.82" y="92.56" width="6.6" height="7.11"/><rect class="cls-7" x="85.82" y="85.44" width="6.6" height="7.11"/><rect class="cls-7" x="85.82" y="78.32" width="6.6" height="7.12"/><rect class="cls-5" x="85.82" y="71.21" width="6.6" height="7.11"/><rect class="cls-4" x="85.82" y="64.09" width="6.6" height="7.11"/><rect class="cls-1" x="85.82" y="56.98" width="6.6" height="7.11"/><rect class="cls-4" x="85.82" y="49.86" width="6.6" height="7.11"/><rect class="cls-4" x="85.82" y="42.74" width="6.6" height="7.12"/><rect class="cls-9" x="79.21" y="177.94" width="6.6" height="7.11"/><rect class="cls-6" x="79.21" y="170.83" width="6.6" height="7.11"/><rect class="cls-1" x="79.21" y="163.71" width="6.6" height="7.11"/><rect class="cls-2" x="79.21" y="156.6" width="6.6" height="7.11"/><rect class="cls-8" x="79.21" y="149.48" width="6.6" height="7.12"/><rect class="cls-10" x="79.21" y="142.36" width="6.6" height="7.11"/><rect class="cls-11" x="79.21" y="135.25" width="6.6" height="7.11"/><rect class="cls-11" x="79.21" y="128.13" width="6.6" height="7.11"/><rect class="cls-11" x="79.21" y="121.02" width="6.6" height="7.11"/><rect class="cls-3" x="79.21" y="113.9" width="6.6" height="7.12"/><rect class="cls-3" x="79.21" y="106.79" width="6.6" height="7.11"/><rect class="cls-12" x="79.21" y="99.67" width="6.6" height="7.11"/><rect class="cls-7" x="79.21" y="92.56" width="6.6" height="7.11"/><rect class="cls-7" x="79.21" y="85.44" width="6.6" height="7.11"/><rect class="cls-5" x="79.21" y="78.32" width="6.6" height="7.12"/><rect class="cls-5" x="79.21" y="71.21" width="6.6" height="7.11"/><rect class="cls-4" x="79.21" y="64.09" width="6.6" height="7.11"/><rect class="cls-1" x="79.21" y="56.98" width="6.6" height="7.11"/><rect class="cls-4" x="79.21" y="49.86" width="6.6" height="7.11"/><rect class="cls-4" x="79.21" y="42.74" width="6.6" height="7.12"/><rect class="cls-9" x="72.62" y="177.94" width="6.6" height="7.11"/><rect class="cls-2" x="72.62" y="170.83" width="6.6" height="7.11"/><rect class="cls-1" x="72.62" y="163.71" width="6.6" height="7.11"/><rect class="cls-2" x="72.62" y="156.6" width="6.6" height="7.11"/><rect class="cls-8" x="72.62" y="149.48" width="6.6" height="7.12"/><rect class="cls-10" x="72.62" y="142.36" width="6.6" height="7.11"/><rect class="cls-11" x="72.62" y="135.25" width="6.6" height="7.11"/><rect class="cls-11" x="72.62" y="128.13" width="6.6" height="7.11"/><rect class="cls-11" x="72.62" y="121.02" width="6.6" height="7.11"/><rect class="cls-3" x="72.62" y="113.9" width="6.6" height="7.12"/><rect class="cls-3" x="72.62" y="106.79" width="6.6" height="7.11"/><rect class="cls-3" x="72.62" y="99.67" width="6.6" height="7.11"/><rect class="cls-12" x="72.62" y="92.56" width="6.6" height="7.11"/><rect class="cls-7" x="72.62" y="85.44" width="6.6" height="7.11"/><rect class="cls-7" x="72.62" y="78.32" width="6.6" height="7.12"/><rect class="cls-5" x="72.62" y="71.21" width="6.6" height="7.11"/><rect class="cls-4" x="72.62" y="64.09" width="6.6" height="7.11"/><rect class="cls-1" x="72.62" y="56.98" width="6.6" height="7.11"/><rect class="cls-4" x="72.62" y="49.86" width="6.6" height="7.11"/><rect class="cls-4" x="72.62" y="42.74" width="6.6" height="7.12"/><rect class="cls-9" x="66.02" y="177.94" width="6.6" height="7.11"/><rect class="cls-2" x="66.02" y="170.83" width="6.6" height="7.11"/><rect class="cls-2" x="66.02" y="163.71" width="6.6" height="7.11"/><rect class="cls-1" x="66.02" y="156.6" width="6.6" height="7.11"/><rect class="cls-8" x="66.02" y="149.48" width="6.6" height="7.12"/><rect class="cls-10" x="66.02" y="142.36" width="6.6" height="7.11"/><rect class="cls-11" x="66.02" y="135.25" width="6.6" height="7.11"/><rect class="cls-11" x="66.02" y="128.13" width="6.6" height="7.11"/><rect class="cls-11" x="66.02" y="121.02" width="6.6" height="7.11"/><rect class="cls-3" x="66.02" y="113.9" width="6.6" height="7.12"/><rect class="cls-3" x="66.02" y="106.79" width="6.6" height="7.11"/><rect class="cls-12" x="66.02" y="99.67" width="6.6" height="7.11"/><rect class="cls-12" x="66.02" y="92.56" width="6.6" height="7.11"/><rect class="cls-7" x="66.02" y="85.44" width="6.6" height="7.11"/><rect class="cls-5" x="66.02" y="78.32" width="6.6" height="7.12"/><rect class="cls-5" x="66.02" y="71.21" width="6.6" height="7.11"/><rect class="cls-1" x="66.02" y="64.09" width="6.6" height="7.11"/><rect class="cls-4" x="66.02" y="56.98" width="6.6" height="7.11"/><rect class="cls-4" x="66.02" y="49.86" width="6.6" height="7.11"/><rect class="cls-4" x="66.02" y="42.74" width="6.6" height="7.12"/><rect class="cls-9" x="59.42" y="177.94" width="6.6" height="7.11"/><rect class="cls-2" x="59.42" y="170.83" width="6.6" height="7.11"/><rect class="cls-2" x="59.42" y="163.71" width="6.6" height="7.11"/><rect class="cls-8" x="59.42" y="156.6" width="6.6" height="7.11"/><rect class="cls-1" x="59.42" y="149.48" width="6.6" height="7.12"/><rect class="cls-1" x="59.42" y="142.36" width="6.6" height="7.11"/><rect class="cls-1" x="59.42" y="135.25" width="6.6" height="7.11"/><rect class="cls-1" x="59.42" y="128.13" width="6.6" height="7.11"/><rect class="cls-1" x="59.42" y="121.02" width="6.6" height="7.11"/><rect class="cls-1" x="59.42" y="113.9" width="6.6" height="7.12"/><rect class="cls-1" x="59.42" y="106.79" width="6.6" height="7.11"/><rect class="cls-1" x="59.42" y="99.67" width="6.6" height="7.11"/><rect class="cls-1" x="59.42" y="92.56" width="6.6" height="7.11"/><rect class="cls-1" x="59.42" y="85.44" width="6.6" height="7.11"/><rect class="cls-1" x="59.42" y="78.32" width="6.6" height="7.12"/><rect class="cls-1" x="59.42" y="71.21" width="6.6" height="7.11"/><rect class="cls-5" x="59.42" y="64.09" width="6.6" height="7.11"/><rect class="cls-4" x="59.42" y="56.98" width="6.6" height="7.11"/><rect class="cls-4" x="59.42" y="49.86" width="6.6" height="7.11"/><rect class="cls-4" x="59.42" y="42.74" width="6.6" height="7.12"/><rect class="cls-6" x="52.83" y="177.94" width="6.6" height="7.11"/><rect class="cls-2" x="52.83" y="170.83" width="6.6" height="7.11"/><rect class="cls-2" x="52.83" y="163.71" width="6.6" height="7.11"/><rect class="cls-8" x="52.83" y="156.6" width="6.6" height="7.11"/><rect class="cls-8" x="52.83" y="149.48" width="6.6" height="7.12"/><rect class="cls-11" x="52.83" y="142.36" width="6.6" height="7.11"/><rect class="cls-11" x="52.83" y="135.25" width="6.6" height="7.11"/><rect class="cls-11" x="52.83" y="128.13" width="6.6" height="7.11"/><rect class="cls-3" x="52.83" y="121.02" width="6.6" height="7.11"/><rect class="cls-3" x="52.83" y="113.9" width="6.6" height="7.12"/><rect class="cls-3" x="52.83" y="106.79" width="6.6" height="7.11"/><rect class="cls-7" x="52.83" y="99.67" width="6.6" height="7.11"/><rect class="cls-7" x="52.83" y="92.56" width="6.6" height="7.11"/><rect class="cls-7" x="52.83" y="85.44" width="6.6" height="7.11"/><rect class="cls-7" x="52.83" y="78.32" width="6.6" height="7.12"/><rect class="cls-5" x="52.83" y="71.21" width="6.6" height="7.11"/><rect class="cls-4" x="52.83" y="64.09" width="6.6" height="7.11"/><rect class="cls-4" x="52.83" y="56.98" width="6.6" height="7.11"/><rect class="cls-4" x="52.83" y="49.86" width="6.6" height="7.11"/><rect class="cls-4" x="52.83" y="42.74" width="6.6" height="7.12"/><rect class="cls-2" x="46.23" y="170.83" width="6.6" height="7.11"/><rect class="cls-8" x="46.23" y="163.71" width="6.6" height="7.11"/><rect class="cls-10" x="46.23" y="156.6" width="6.6" height="7.11"/><rect class="cls-10" x="46.23" y="149.48" width="6.6" height="7.12"/><rect class="cls-11" x="46.23" y="142.36" width="6.6" height="7.11"/><rect class="cls-11" x="46.23" y="135.25" width="6.6" height="7.11"/><rect class="cls-11" x="46.23" y="128.13" width="6.6" height="7.11"/><rect class="cls-3" x="46.23" y="121.02" width="6.6" height="7.11"/><rect class="cls-3" x="46.23" y="113.9" width="6.6" height="7.12"/><rect class="cls-12" x="46.23" y="106.79" width="6.6" height="7.11"/><rect class="cls-12" x="46.23" y="99.67" width="6.6" height="7.11"/><rect class="cls-7" x="46.23" y="92.56" width="6.6" height="7.11"/><rect class="cls-7" x="46.23" y="85.44" width="6.6" height="7.11"/><rect class="cls-5" x="46.23" y="78.32" width="6.6" height="7.12"/><rect class="cls-5" x="46.23" y="71.21" width="6.6" height="7.11"/><rect class="cls-5" x="46.23" y="64.09" width="6.6" height="7.11"/><rect class="cls-4" x="46.23" y="56.98" width="6.6" height="7.11"/><rect class="cls-4" x="46.23" y="49.86" width="6.6" height="7.11"/><rect class="cls-8" x="39.64" y="163.71" width="6.6" height="7.11"/><rect class="cls-10" x="39.64" y="156.6" width="6.6" height="7.11"/><rect class="cls-11" x="39.64" y="149.48" width="6.6" height="7.12"/><rect class="cls-11" x="39.64" y="142.36" width="6.6" height="7.11"/><rect class="cls-11" x="39.64" y="135.25" width="6.6" height="7.11"/><rect class="cls-11" x="39.64" y="128.13" width="6.6" height="7.11"/><rect class="cls-3" x="39.64" y="121.02" width="6.6" height="7.11"/><rect class="cls-12" x="39.64" y="113.9" width="6.6" height="7.12"/><rect class="cls-12" x="39.64" y="106.79" width="6.6" height="7.11"/><rect class="cls-7" x="39.64" y="99.67" width="6.6" height="7.11"/><rect class="cls-5" x="39.64" y="92.56" width="6.6" height="7.11"/><rect class="cls-5" x="39.64" y="85.44" width="6.6" height="7.11"/><rect class="cls-5" x="39.64" y="78.32" width="6.6" height="7.12"/><rect class="cls-5" x="39.64" y="71.21" width="6.6" height="7.11"/><rect class="cls-4" x="39.64" y="64.09" width="6.6" height="7.11"/><rect class="cls-4" x="39.64" y="56.98" width="6.6" height="7.11"/><rect class="cls-10" x="33.04" y="156.6" width="6.6" height="7.11"/><rect class="cls-11" x="33.04" y="149.48" width="6.6" height="7.12"/><rect class="cls-11" x="33.04" y="142.36" width="6.6" height="7.11"/><rect class="cls-11" x="33.04" y="135.25" width="6.6" height="7.11"/><rect class="cls-3" x="33.04" y="128.13" width="6.6" height="7.11"/><rect class="cls-3" x="33.04" y="121.02" width="6.6" height="7.11"/><rect class="cls-12" x="33.04" y="113.9" width="6.6" height="7.12"/><rect class="cls-12" x="33.04" y="106.79" width="6.6" height="7.11"/><rect class="cls-7" x="33.04" y="99.67" width="6.6" height="7.11"/><rect class="cls-5" x="33.04" y="92.56" width="6.6" height="7.11"/><rect class="cls-5" x="33.04" y="85.44" width="6.6" height="7.11"/><rect class="cls-4" x="33.04" y="78.32" width="6.6" height="7.12"/><rect class="cls-4" x="33.04" y="71.21" width="6.6" height="7.11"/><rect class="cls-4" x="33.04" y="64.09" width="6.6" height="7.11"/></g></g></svg>