<?xml version="1.0" encoding="UTF-8"?><svg id="Calque_2" xmlns="http://www.w3.org/2000/svg" viewBox="0 0 652.52 303.62"><defs><style>.cls-1{fill:#f7142b;}</style></defs><g id="Calque_1-2"><g><path class="cls-1" d="M652.45,152.5v13.51H221.89v-13.51h430.56Z"/><path class="cls-1" d="M85.15,89.9v-13.41H412.37v13.41H85.15Z"/><path class="cls-1" d="M280.69,228.69v13.5H1.43v-13.5H280.69Z"/><path class="cls-1" d="M389.84,214.64h-8.23c0-.81,0-1.61,0-2.41,0-5.57,.02-11.15,0-16.72-.02-3.75-1.51-5.7-4.45-5.99-2.88-.28-5.09,1.45-5.76,4.85-.39,1.96-.39,4.02-.42,6.03-.06,4.64-.02,9.28-.02,14.11h-8.36c0-4.97,0-9.94,0-14.91,0-1.86,.02-3.72-.12-5.57-.17-2.22-1.21-3.86-3.55-4.34-2.37-.49-4.6,.06-5.68,2.25-.9,1.82-1.43,3.98-1.5,6.02-.2,5.47-.07,10.95-.07,16.58h-8.28v-31.06h7.06c.16,1.24,.32,2.53,.54,4.23,2.78-2.84,5.44-5.3,9.4-5.21,3.89,.09,6.75,1.88,8.51,5.48,1.27-1.18,2.29-2.29,3.47-3.18,7.09-5.35,16.73-1.44,17.36,7.37,.53,7.37,.11,14.81,.11,22.46Z"/><path class="cls-1" d="M29.02,62.4h-8.26c-.05-.92-.14-1.8-.14-2.69-.01-5.49,.02-10.98-.02-16.47-.02-3.67-1.42-5.59-4.19-5.93-2.96-.37-5.34,1.36-6.18,4.74-.38,1.53-.44,3.17-.45,4.76-.05,5.13-.02,10.26-.02,15.55H1.4V31.3h7.15l.46,4.23c2.75-2.87,5.42-5.32,9.37-5.28,3.89,.04,6.71,1.93,8.59,5.46,1.22-1.12,2.26-2.2,3.43-3.11,3.62-2.85,7.64-3.01,11.71-1.28,3.93,1.67,5.65,5.04,5.77,9.09,.2,6.75,.13,13.51,.16,20.26,0,.5-.1,.99-.17,1.67h-8.06c-.05-.88-.14-1.76-.14-2.65-.01-5.32,.01-10.64-.01-15.96-.02-4.28-1.58-6.35-4.79-6.44-3.18-.09-5.52,2.18-5.71,6.14-.24,5.14-.12,10.3-.15,15.45,0,1.08,0,2.17,0,3.53Z"/><path class="cls-1" d="M290.03,183.4h6.99c.19,1.35,.36,2.66,.59,4.29,2.67-2.76,5.32-5.24,9.28-5.19,3.9,.05,6.76,1.83,8.9,6.1,1.02-1.34,1.64-2.49,2.55-3.3,3.69-3.24,7.93-3.59,12.3-1.75,4.15,1.75,5.74,5.35,5.83,9.58,.14,6.75,.05,13.51,.06,20.27,0,.33-.08,.65-.14,1.13h-8.1c-.04-.93-.12-1.9-.12-2.87-.01-5.66,.1-11.32-.04-16.97-.08-3.24-1.75-4.94-4.46-5.18-2.64-.23-4.75,1.25-5.53,4.17-.41,1.53-.54,3.16-.56,4.75-.07,4.47-.02,8.95-.02,13.43,0,.83,0,1.66,0,2.67h-8.39c0-4.05,0-7.99,0-11.94,0-2.7,.04-5.41-.05-8.11-.08-2.41-1.09-4.23-3.65-4.82-2.45-.56-4.99,.38-5.93,2.73-.76,1.9-1.14,4.06-1.23,6.12-.18,4.38-.06,8.78-.06,13.17,0,.91,0,1.83,0,2.88h-8.21v-31.16Z"/><path class="cls-1" d="M269.1,138.5h-8.15v-31.08h6.98c.18,1.28,.35,2.53,.57,4.16,2.73-2.81,5.39-5.27,9.32-5.21,3.9,.06,6.74,1.91,8.74,5.83,.66-.85,1.11-1.55,1.67-2.12,3.63-3.68,7.92-4.63,12.76-2.86,4.62,1.69,6.3,5.52,6.44,9.97,.21,7,.06,14.01,.06,21.22h-8.36c-.04-.79-.11-1.68-.11-2.57-.01-5.57,.02-11.15-.02-16.72-.02-3.59-1.51-5.46-4.41-5.71-2.89-.25-5.22,1.55-5.75,4.87-.4,2.48-.42,5.04-.46,7.56-.07,4.13-.02,8.26-.02,12.59h-8.24c0-1.37,0-2.76,0-4.16,0-4.9,.03-9.8,0-14.69-.03-3.9-1.57-5.94-4.55-6.17-3.04-.23-5.47,1.72-6.02,5.28-.4,2.57-.38,5.2-.42,7.81-.06,3.95-.02,7.89-.02,12.01Z"/><path class="cls-1" d="M139.57,107.39c.21,1.41,.39,2.65,.59,3.97,8.39-6.92,12.64-6.8,18.08,.48,.58-.62,1.14-1.25,1.73-1.84,3.5-3.51,7.63-4.46,12.32-2.92,4.55,1.49,6.57,5.07,6.73,9.47,.27,7.23,.07,14.49,.07,21.9h-8.42c0-1.78,0-3.52,0-5.26,0-4.9,.04-9.79-.03-14.69-.04-2.94-1.47-4.62-4-5.04-2.55-.42-4.9,.86-5.73,3.49-.55,1.74-.8,3.63-.84,5.46-.11,5.3-.04,10.6-.04,16.06h-8.27c0-2.82,0-5.58,0-8.33,0-3.88,.09-7.77-.06-11.65-.11-2.96-1.62-4.64-4.08-5.03-2.47-.4-4.97,.87-5.86,3.4-.63,1.79-.94,3.77-.99,5.68-.13,5.23-.04,10.46-.04,15.89h-8.06v-31.02h6.88Z"/><path class="cls-1" d="M31.09,259.53c0,10.39,.34,20.52-.13,30.61-.27,5.76-3.66,10.2-9.33,12.11-6.09,2.05-12.16,2.11-17.54-2.12-2.09-1.65-3.42-3.87-3.57-6.86,2.39,0,4.66-.05,6.92,.04,.56,.02,1.23,.4,1.62,.83,2.43,2.58,6.04,3.28,9.47,1.74,3.13-1.41,4.8-4.51,4.38-8.53-3.46,3.71-7.65,4.81-12.29,3.65-6.56-1.64-9.56-6.53-10.02-12.78-.27-3.68,.03-7.69,1.26-11.13,3.19-8.9,13.6-11.2,20.68-4.95,.36,.32,.74,.63,1.26,1.06l.84-3.67h6.47Zm-7.89,15.66c-.27-1.43-.37-2.97-.85-4.37-1.12-3.28-3.89-5.14-7.09-4.98-3.01,.15-5.54,1.99-6.06,5.44-.42,2.8-.25,5.88,.46,8.62,.8,3.08,3.61,4.57,6.59,4.44,2.88-.13,5.31-2.05,6.21-5.08,.38-1.27,.49-2.63,.74-4.06Z"/><path class="cls-1" d="M92.84,185.37v-14.85h8.14v43.82c-5.01,1.12-6.95,.61-7.55-1.42-2.91,.88-5.77,2.35-8.71,2.51-5.6,.31-9.96-3.04-11.89-8.47-1.74-4.91-1.79-9.93-.31-14.92,2.64-8.89,12.55-12.36,20.32-6.67Zm.12,14.11c-.41-2.23-.51-3.95-1.07-5.5-1.02-2.84-3.69-4.39-6.54-4.13-2.51,.23-4.64,1.93-4.91,4.95-.28,3.19-.05,6.5,.5,9.66,.38,2.16,2.22,3.5,4.58,3.73,2.42,.23,4.47-.66,5.52-2.77,.98-1.97,1.39-4.22,1.92-5.94Z"/><path class="cls-1" d="M29.47,138.57h-6.76l-.8-2.16c-2.01,.92-3.95,2.23-6.07,2.71-6.09,1.37-11.77-1.73-14.14-7.56-2.14-5.28-2.26-10.73-.43-16.1,2.89-8.49,11.56-11.47,19.2-6.75,.19,.12,.44,.15,.91,.29v-14.63h8.07v44.21Zm-7.87-15.52c-.46-2.09-.64-3.88-1.27-5.49-1.03-2.62-3.51-4-6.23-3.82-2.51,.17-4.62,1.63-4.96,4.56-.38,3.26-.2,6.66,.32,9.91,.36,2.25,2.28,3.67,4.74,3.88,2.54,.22,4.57-.89,5.62-3.07,.92-1.91,1.25-4.11,1.77-5.97Z"/><path class="cls-1" d="M204.5,287.76c-8.74,8.07-20.09,2.19-21.76-7.95-.76-4.62-.53-9.09,1.32-13.4,3.62-8.46,14.13-10.25,19.62-4.24,.21,.23,.5,.39,.9,.69,.25-1.14,.47-2.11,.72-3.26h7.28v41.62h-8.08v-13.45Zm.11-12.26c-.46-2.05-.65-4.01-1.36-5.76-1.02-2.52-3.04-4.02-5.87-4.04-2.66-.02-4.9,1.59-5.86,4.41-1.21,3.53-1.32,7.11,.26,10.59,1.07,2.36,2.97,3.67,5.56,3.72,2.57,.05,4.67-1.13,5.74-3.44,.79-1.7,1.04-3.66,1.53-5.47Z"/><path class="cls-1" d="M105.34,301.24h-8.13v-41.64h7.25l.63,3.26c.55-.43,.92-.69,1.25-.99,5.56-5.03,13.81-4.17,17.69,2.25,4.19,6.94,4.22,14.32,.39,21.46-3.29,6.13-12.54,8.51-18.02,3.09-.22-.22-.5-.37-1.07-.77v13.35Zm-.36-26.02l.35,.14c.14,1.25,.17,2.54,.45,3.76,.7,2.98,3.25,5.16,6.04,5.31,2.93,.15,5.29-1.62,6.27-4.86,1-3.33,.89-6.68-.37-9.92-.89-2.28-2.57-3.73-5.12-3.92-2.54-.19-4.58,.94-5.64,3.1-.97,1.98-1.34,4.26-1.97,6.4Z"/><path class="cls-1" d="M194.17,135.63v12.49h-8.13v-40.7h7.24c.22,.98,.46,2.02,.75,3.3,2.83-2.9,5.92-4.79,9.97-4.29,5.66,.71,9.85,4.24,11.02,10.31,.7,3.64,.76,7.57,.25,11.26-1.38,10-12.77,15.38-21.1,7.62Zm-.35-12.75l.45,.15c.06,1.01,.05,2.03,.2,3.03,.49,3.4,3.07,5.93,6.13,6.09,3.24,.17,6.03-1.83,6.43-5.49,.34-3.09,0-6.34-.61-9.41-.46-2.28-2.5-3.57-4.89-3.81-2.41-.24-4.47,.81-5.52,2.86-1.05,2.03-1.48,4.37-2.19,6.57Z"/><path class="cls-1" d="M133.04,246.62h8.15v15.52c3.32-2.67,6.58-3.89,10.4-3.37,4.86,.67,8.58,3.77,8.81,8.65,.35,7.65,.09,15.34,.09,23.18h-8.21c0-4.99,0-9.94,0-14.89,0-1.69,.07-3.38-.03-5.07-.13-2.26-.96-4.12-3.4-4.77-2.43-.64-5.04,.16-6.09,2.43-.86,1.85-1.36,4.01-1.43,6.05-.19,5.38-.06,10.77-.06,16.29h-8.21v-44.01Z"/><path class="cls-1" d="M91.97,283.84c-.24,5.49-.9,6.76-3.78,7.43-3.66,.85-5.69-.19-7.38-3.43-3.05,1.26-5.94,2.91-9.05,3.63-5.06,1.17-9.98-1.9-11.21-6.38-1.41-5.16,.91-9.83,6.37-11.52,4.06-1.26,8.37-1.7,12.63-2.52,.35-2.8-.64-4.73-2.92-5.52-3.64-1.25-7.03,.49-10.21,5.37-1.99-1.18-3.98-2.36-5.95-3.53,3.76-8.79,17.15-11.78,24.03-5.56,2.28,2.06,3.25,4.67,3.26,7.68,0,3.63,0,7.26,0,10.9,0,3.85,.25,4.05,4.21,3.46Zm-12.31-7.56c-3.34,.91-6.42,1.58-9.37,2.63-1.52,.54-2.46,2.21-1.59,3.71,.58,1.01,2.09,1.98,3.26,2.06,4.43,.32,7.81-3.18,7.71-8.4Z"/><path class="cls-1" d="M190.19,194.93c.42-2.74-.5-4.66-2.79-5.49-3.61-1.31-7.04,.41-10.27,5.29-.98-.57-1.99-1.14-2.99-1.72-1.01-.59-2-1.2-2.98-1.78,3.8-8.49,16.2-11.63,23.4-6.07,2.57,1.98,3.87,4.63,3.91,7.86,.04,3.54,.01,7.09,.01,10.63q0,4.43,4.15,4.2c-.27,5.64-.81,6.68-3.84,7.33-3.58,.77-5.48-.21-7.26-3.44-3.12,1.25-6.08,2.9-9.25,3.58-5.02,1.07-9.83-1.95-11.03-6.29-1.43-5.15,.88-9.86,6.31-11.57,4.05-1.27,8.36-1.72,12.64-2.55Zm-.14,5.28c-3.12,.88-6.23,1.54-9.13,2.7-.87,.35-1.66,2.18-1.56,3.24,.09,.89,1.44,2.19,2.4,2.36,4.94,.87,9.65-3.83,8.29-8.31Z"/><path class="cls-1" d="M545.83,207.69c-.17,5.39-.89,6.8-3.68,7.46-3.67,.88-5.79-.21-7.43-3.42-3.04,1.24-5.94,2.9-9.05,3.57-5.35,1.15-10.04-1.85-11.28-6.56-1.34-5.13,1.05-9.63,6.6-11.39,3.26-1.03,6.77-1.28,10.17-1.86,.73-.12,1.48-.15,2.17-.22,.49-2.92-.42-4.89-2.55-5.77-3.6-1.49-7.31,.33-10.47,5.28-1.98-1.17-3.97-2.35-5.93-3.51,2.38-5.95,8.7-9.36,15.84-8.73,3.38,.3,6.72,1.08,8.75,3.89,1.35,1.87,2.24,4.35,2.5,6.65,.41,3.67,.1,7.42,.11,11.13,.01,3.8,.36,4.1,4.24,3.48Zm-12.24-7.45c-3.2,.79-6.14,1.34-8.95,2.28-1.67,.56-2.78,1.97-2.17,3.98,.57,1.87,2.09,2.23,3.81,2.15,4.27-.19,7.27-3.36,7.31-8.42Z"/><path class="cls-1" d="M181.75,48.73h-20.49c-.36,3.38,1.18,6.05,3.89,7.13,3.47,1.38,6.64,.06,9.71-4.2,1.1,.38,2.28,.77,3.45,1.18,1.1,.39,2.19,.8,3.29,1.2-2.6,6.49-8.27,9.75-15.69,9.14-6.46-.53-11.78-5.04-12.89-11.64-.55-3.25-.56-6.78,.11-9.99,1.57-7.48,7.97-11.9,15.48-11.28,7.22,.59,12.46,6.05,13.12,13.73,.12,1.41,.02,2.84,.02,4.73Zm-8.75-6.3c-.38-3.66-2.87-5.73-6.3-5.39-3.09,.31-5.12,2.49-4.94,5.39h11.24Z"/><path class="cls-1" d="M141.32,51.63l6.7,2.34c-2.09,6.11-7.84,9.64-14.84,9.27-6.9-.36-12.4-4.69-13.61-11.46-.6-3.32-.61-6.95,.06-10.25,1.52-7.44,8.04-11.91,15.52-11.26,7.33,.63,12.52,6.18,13.11,14.06,.09,1.25,.01,2.52,.01,4.28h-20.63c-.14,3.83,1.54,6.47,4.37,7.38,3.52,1.14,6.48-.19,9.31-4.36Zm-1.75-9.19c-.69-3.83-2.95-5.68-6.28-5.4-3.09,.25-5.1,2.31-5.13,5.4h11.4Z"/><path class="cls-1" d="M415.07,124.83h-20.66c0,3.7,1.55,6.2,4.21,7.18,3.42,1.27,6.18,.11,9.66-4.15,.43,.12,.92,.21,1.38,.38,1.74,.61,3.48,1.24,5.21,1.86-2.02,6.01-7.92,9.7-14.72,9.28-7.2-.44-12.65-4.87-13.81-11.84-.53-3.17-.53-6.61,.11-9.75,1.53-7.5,7.96-12.02,15.39-11.41,7.33,.61,12.55,5.96,13.22,13.62,.12,1.41,.02,2.85,.02,4.84Zm-8.79-6.19c-.13-3.6-2.5-5.67-6.09-5.46-3.17,.19-5.33,2.47-5.12,5.46h11.21Z"/><path class="cls-1" d="M8.78,201.02c.02,3.9,1.52,6.21,4.46,7.19,2.96,.99,6.09,.19,7.86-2.48,1.08-1.63,2.04-1.88,3.67-1.13,1.37,.63,2.83,1.05,4.51,1.66-1.35,3.68-3.76,6.21-7.13,7.82-9.82,4.71-20.92-1.53-21.87-12.37-.22-2.49-.11-5.1,.42-7.53,1.83-8.44,8.85-13,17.45-11.37,8.34,1.58,11.5,9.33,11.41,16.36-.02,1.8-1.22,1.78-2.41,1.79-5.24,.04-10.48,.05-15.72,.06-.83,0-1.67,0-2.66,0Zm11.9-6.25c-.46-3.81-2.56-5.63-6.06-5.49-3.15,.13-5.16,2.15-5.37,5.49h11.43Z"/><path class="cls-1" d="M136.19,200.87h-20.64c-.22,3.53,1.29,6.14,3.96,7.22,2.91,1.18,6.5,.5,8.15-2.19,1.32-2.14,2.58-1.84,4.34-1.1,1.3,.55,2.65,.98,3.98,1.47-2.45,6.21-8.36,9.83-14.92,9.27-7.29-.62-12.52-5.04-13.74-12.01-.44-2.53-.56-5.24-.19-7.77,1.27-8.72,7.47-13.84,15.63-13.23,7.98,.6,13.2,6.52,13.43,15.25,.02,.91,0,1.82,0,3.09Zm-8.84-6.12c-.2-3.65-2.52-5.66-6.15-5.46-3.15,.18-5.31,2.47-5.11,5.46h11.25Z"/><path class="cls-1" d="M64.59,124.83h-20.62c.17,3.95,1.7,6.31,4.5,7.26,3.41,1.16,6.09-.03,9.45-4.29,2.14,.75,4.35,1.51,6.55,2.28-1.81,5.67-7.19,9.3-13.68,9.34-6.9,.05-12.41-3.79-14.44-10.16-1.34-4.21-1.35-8.49-.02-12.7,2.12-6.73,8.16-10.74,15.13-10.17,7.07,.58,12.2,5.56,13.1,12.87,.2,1.65,.03,3.34,.03,5.58Zm-20.09-6.22h11.37c-.11-3.36-2.14-5.35-5.38-5.44-3.39-.1-5.6,1.86-5.99,5.44Z"/><path class="cls-1" d="M321.6,124.93c.06,3.95,1.65,6.32,4.66,7.21,3.5,1.04,6.14-.17,9.1-4.38,2.16,.75,4.43,1.53,6.69,2.31-1.92,5.55-6.86,9.02-13.08,9.32-6.45,.31-11.89-2.79-14.37-8.4-2.29-5.19-2.31-10.54-.22-15.77,2.45-6.15,8.48-9.57,15.04-8.81,6.71,.78,11.51,5.44,12.61,12.27,.99,6.14,.91,6.24-5.29,6.24-5.05,0-10.1,0-15.15,0Zm11.75-6.32c.01-3.33-2.06-5.37-5.35-5.45-3.44-.08-5.69,1.98-5.9,5.45h11.25Z"/><path class="cls-1" d="M261.81,277.08c0,3.93,1.55,6.3,4.56,7.28,3.38,1.1,6.17-.18,9.22-4.36,1.03,.35,2.13,.72,3.22,1.11,1.11,.39,2.21,.79,3.3,1.18-1.39,5.66-7.89,9.81-14.57,9.38-7.68-.5-13.37-5.7-14.13-13.35-.29-2.89-.15-5.95,.51-8.77,1.64-7.05,7.42-11.14,14.75-10.9,6.85,.22,11.93,4.59,13.45,11.56,1.42,6.52,1.14,6.87-5.42,6.87-4.96,0-9.92,0-14.88,0Zm11.77-6.21c-.02-3.39-2.15-5.47-5.52-5.49-3.39-.02-5.64,2.11-5.74,5.49h11.26Z"/><path class="cls-1" d="M268.83,182.5c8.8,.05,14.4,5.58,15.19,14.99,1.06,12.61-9.02,20.99-20.73,17.24-5.97-1.91-9.32-6.96-9.81-14.78-.63-10.16,5.83-17.51,15.35-17.45Zm7.28,16.41c-.7-2.26-1.04-4.66-2.15-6.64-2.4-4.27-8.16-4.13-10.47,.18-2.25,4.2-2.25,8.62-.11,12.84,2.23,4.39,8.29,4.52,10.65,.21,1.05-1.92,1.37-4.24,2.09-6.6Z"/><path class="cls-1" d="M618.91,198.9c-.05,12.13-9.5,19.37-20.7,15.86-6.24-1.96-9.82-7.45-9.87-15.48-.1-15.36,12.6-19.17,21.63-15.54,5.73,2.3,8.96,7.9,8.93,15.16Zm-8.06,.06c-.61-2.19-.97-4.37-1.84-6.33-.99-2.24-2.95-3.38-5.49-3.37-2.46,.02-4.24,1.18-5.29,3.3-2.08,4.19-2.06,8.48-.08,12.69,1.02,2.17,2.9,3.28,5.29,3.32,2.49,.05,4.56-1,5.55-3.29,.85-1.97,1.24-4.14,1.86-6.33Z"/><path class="cls-1" d="M424.17,183.51v30.99h-7.43c-.2-.88-.44-1.92-.73-3.17-.42,.35-.79,.6-1.08,.92-2.93,3.32-6.66,3.78-10.66,2.75-4.03-1.04-6.6-3.77-7.39-7.83-.46-2.37-.48-4.86-.51-7.29-.07-5.39-.02-10.79-.02-16.37h8.52c0,.84,0,1.73,0,2.61,0,5.49-.02,10.97,.01,16.46,.02,3.05,1.23,4.77,3.62,5.37,2.39,.6,5.16-.66,6.21-3.22,.65-1.59,.94-3.41,.98-5.14,.12-5.3,.04-10.6,.04-16.09h8.43Z"/><path class="cls-1" d="M624.84,183.32c.99,0,1.75,0,2.5,0q4.16-.02,5.53,3.86c2.77-3.39,6.12-5.23,10.6-4.52,5.05,.8,8.68,4.09,8.88,9.2,.3,7.49,.08,15,.08,22.67h-8.38c0-2.19,0-4.36,0-6.54,0-4.47,.02-8.95-.06-13.42-.04-2.42-1.1-4.25-3.65-4.8-2.52-.55-4.68,.3-5.79,2.55-.83,1.67-1.29,3.68-1.34,5.55-.17,5.47-.06,10.96-.06,16.63h-8.31v-31.19Z"/><path class="cls-1" d="M450.62,214.53c0-6.65,.01-13.21,0-19.77,0-2.44-1.01-4.25-3.49-4.95-2.38-.67-4.98,.24-6.02,2.54-.8,1.79-1.25,3.85-1.33,5.82-.19,4.46-.06,8.94-.06,13.41,0,.92,0,1.83,0,2.93h-8.28v-31h6.94c.27,1.02,.58,2.2,.96,3.64,.45-.41,.76-.63,1-.91,3.29-3.74,7.35-4.53,11.94-3.04,4.53,1.47,6.62,5,6.78,9.42,.26,7.23,.07,14.49,.07,21.91h-8.51Z"/><path class="cls-1" d="M219.78,259.53h8.14c0,1.37,0,2.69,0,4,0,5.06-.02,10.13,.01,15.19,.02,2.98,1.33,4.82,3.67,5.36,2.35,.54,5.08-.58,6.09-3.02,.75-1.81,1.09-3.89,1.15-5.87,.15-5.13,.05-10.27,.05-15.59h8.3v31.01h-7.4c-.22-.99-.44-2.02-.74-3.36-2.86,3.51-6.22,4.92-10.47,4.14-4.82-.89-8.43-3.94-8.7-8.84-.42-7.55-.11-15.14-.11-23.02Z"/><path class="cls-1" d="M54.4,31.28h8.2c0,1.68,0,3.33,0,4.98,0,4.73-.04,9.45,.02,14.18,.04,2.98,1.35,4.72,3.77,5.27,2.39,.55,5.02-.56,6.05-3.03,.73-1.74,1.08-3.73,1.14-5.62,.15-5.2,.05-10.41,.05-15.74h8.3v31.04h-7.43l-.7-3.52c-2.39,2.97-5.08,4.51-8.63,4.39-5.95-.2-10.35-3.72-10.68-9.67-.4-7.3-.1-14.64-.1-22.29Z"/><path class="cls-1" d="M114.19,36.69c-1.63,1.56-3.27,3.11-4.99,4.76-2.1-2.64-4.92-4.6-8.85-4.25-1.72,.15-3.64,.27-3.86,2.44-.21,2.03,1.72,2.27,3.11,2.68,2.02,.59,4.09,.99,6.15,1.46,6.28,1.42,9.13,4.24,9.14,9.07,.01,5.04-3.42,8.76-9.29,10.06-6.64,1.47-14.57-1.46-17.71-6.56-.26-.42-.44-.9-.8-1.67,1.85-1.37,3.71-2.76,5.68-4.22,1.98,3.11,4.42,5.48,8.19,5.8,1.23,.1,2.63,.11,3.71-.38,.9-.41,1.87-1.58,1.96-2.5,.06-.67-1.13-1.84-1.98-2.14-2.22-.77-4.59-1.07-6.85-1.75-1.76-.53-3.56-1.14-5.12-2.09-5.6-3.38-5.78-10.79-.44-14.56,6.55-4.63,17.23-2.74,21.95,3.86Z"/><path class="cls-1" d="M503.12,202.94c2.23,1.2,4.22,2.28,6.42,3.46-2.56,5.41-6.59,8.69-12.49,9.08-6.1,.4-11.28-1.7-14.22-7.32-3.23-6.17-3.21-12.6,.37-18.64,3.32-5.59,8.6-7.63,14.95-6.82,5.75,.73,9.45,4.03,11.44,9.77-2.35,.9-4.59,1.76-6.99,2.68-.4-.74-.74-1.39-1.09-2.03-1.27-2.35-3.2-3.75-5.91-3.64-2.7,.11-4.58,1.6-5.62,4.07-1.38,3.24-1.39,6.57-.41,9.91,.84,2.85,2.72,4.67,5.72,5.03,3.01,.35,5.2-1.06,6.74-3.58,.35-.57,.66-1.16,1.1-1.95Z"/><path class="cls-1" d="M249.85,192.51l-7.02,2.62c-.43-.81-.79-1.55-1.19-2.25-1.22-2.14-3.05-3.41-5.53-3.41-2.6,0-4.5,1.31-5.64,3.61-1.65,3.34-1.68,6.83-.65,10.34,.86,2.96,2.84,4.79,5.95,5.07,2.89,.26,5.01-1.13,6.49-3.56,.35-.57,.66-1.16,1.12-1.98,2.09,1.12,4.13,2.21,6.43,3.43-2.46,5.17-6.23,8.45-11.9,9.03-6.08,.61-11.36-1.23-14.49-6.72-3.66-6.41-3.66-13.14,.24-19.47,3.41-5.54,8.78-7.4,15.09-6.47,5.62,.82,9.2,4.14,11.12,9.76Z"/><path class="cls-1" d="M1.63,8.32c-.63-1.76-.26-2.56,1.45-2.42,.42,.04,.84,0,1.27,0,57.73,0,115.46,0,173.19,0h2.58c.68,1.55,.62,2.48-1.38,2.43-2.2-.06-4.39-.01-6.59-.01-55.87,0-111.74,0-167.61,0H1.63Z"/><path class="cls-1" d="M547.55,190.37v-7h4.94c.34-2.05,.07-4.27,1.05-5.53,2.02-2.6,4.7-4.7,7.59-7.45v12.86h6.22v7h-6.15c0,5.47-.1,10.75,.12,16.02,.03,.72,1.61,1.75,2.62,1.97,1.13,.24,2.43-.29,4.01-.54-.44,2.08-.82,3.95-1.26,5.8-.07,.28-.33,.61-.6,.73-2.93,1.41-5.96,1.87-9.04,.54-2.68-1.16-3.99-3.39-4.07-6.2-.14-4.98-.09-9.96-.12-14.94,0-1,0-1.99,0-3.27h-5.3Z"/><path class="cls-1" d="M52.3,183.22v6.99h-6.27c0,5.56-.1,10.84,.12,16.11,.03,.71,1.64,1.73,2.65,1.93,1.14,.23,2.44-.3,3.89-.53-.11,.78-.18,1.43-.3,2.06-.9,4.61-2.78,6.09-7.31,5.77-4.4-.31-7.18-2.9-7.31-7.2-.16-5.48-.06-10.98-.08-16.46,0-.41-.05-.82-.1-1.46h-5.23v-7.02h5.44c-1.68-6.99,4.77-8.48,7.97-12.36v12.18h6.52Z"/><path class="cls-1" d="M85.33,94.3h8.05v44.17h-8.05v-44.17Z"/><path class="cls-1" d="M156.72,170.49h8.13v44.01h-8.13v-44.01Z"/><path class="cls-1" d="M180.21,.2c.51,1.51,.34,2.35-1.31,2.26-.51-.03-1.01,0-1.52,0-57.63,0-115.27,0-172.9-.04-1.05,0-3.02-.72-3-1C1.62-.8,3.49,.25,4.56,.25c57.55-.06,115.1-.05,172.65-.05,1,0,2,0,3,0Z"/><path class="cls-1" d="M1.09,13.13c.63-.47,1.21-1.01,1.89-1.38,.33-.18,.83-.04,1.25-.04,57.81,0,115.62,0,173.43,.01,1.32,0,3.28-.57,2.65,2.17H1.76l-.67-.76Z"/><path class="cls-1" d="M38.44,259.56q6.19-.46,7.61,4.65c.82-1.09,1.5-2.1,2.28-3.02,1.44-1.72,3.24-2.69,5.56-2.29,3.51,.62,4.49,2.73,2.69,5.72-.78,1.29-1.56,2.57-2.34,3.87-3.67-2.76-6.13-1.94-7.03,2.55-.51,2.52-.38,5.19-.42,7.79-.06,3.86-.02,7.73-.02,11.77h-8.33v-31.04Z"/><path class="cls-1" d="M228.33,107.45c.35,1.42,.7,2.86,1.11,4.55,1.01-1.32,1.77-2.43,2.65-3.42,1.53-1.72,3.49-2.33,5.73-1.77,3.18,.79,3.94,2.65,2.3,5.4-.82,1.36-1.64,2.72-2.47,4.09-3.53-2.88-6.41-1.86-7.06,2.67-.51,3.56-.38,7.22-.46,10.84-.06,2.84-.01,5.69-.01,8.67h-8.18v-31.03h6.41Z"/><path class="cls-1" d="M348.14,107.33h6.4c.36,1.47,.71,2.9,1.14,4.65,1.03-1.33,1.78-2.42,2.65-3.4,1.53-1.73,3.48-2.34,5.73-1.78,3.19,.8,3.95,2.64,2.28,5.43-.81,1.36-1.64,2.72-2.48,4.11-3.32-2.84-6.19-2.02-6.94,2.17-.59,3.29-.49,6.71-.58,10.08-.08,3.2-.02,6.41-.02,9.82h-8.19v-31.08Z"/><path class="cls-1" d="M167.85,259.56h8.19v31.04h-8.19v-31.04Z"/><path class="cls-1" d="M573.95,214.49v-31.04h8.09v31.04h-8.09Z"/><path class="cls-1" d="M124.96,138.52h-8.01v-31.12h8.01v31.12Z"/><path class="cls-1" d="M253.31,138.52h-8.01v-31.11h8.01v31.11Z"/><path class="cls-1" d="M371.55,107.38h8.01v31.06h-8.01v-31.06Z"/><path class="cls-1" d="M474.42,183.48v31.07h-8.05v-31.07h8.05Z"/><path class="cls-1" d="M64.25,84.3H1.56c-.71-2.06,.32-2.31,1.95-2.31,11.74,.04,23.48,.02,35.23,.02,7.86,0,15.71,.02,23.57-.01,1.49,0,2.61,.15,1.95,2.3Z"/><path class="cls-1" d="M64.27,76.48c.67,2.03-.5,2.14-1.95,2.13-6.24-.02-12.49,0-18.73,0-13.25,0-26.5,0-39.75,0-1.27,0-2.99,.43-2.38-2.11h62.81Z"/><path class="cls-1" d="M135.43,152.5c.48,1.71-.05,2.28-1.69,2.27-19.76-.04-39.52-.04-59.28,0-1.66,0-2.13-.63-1.63-2.27h62.6Z"/><path class="cls-1" d="M135.47,158.15v2.24h-62.62c-.82-2.51,.86-2.24,2.28-2.24,13.51,0,27.02,0,40.53,0,6.49,0,12.99,0,19.82,0Z"/><path class="cls-1" d="M52.27,160.37H1.54c-.57-1.7,.05-2.23,1.63-2.23,15.8,.03,31.6,.03,47.4,0,1.61,0,2.2,.52,1.7,2.24Z"/><path class="cls-1" d="M1.56,152.48H52.23c.47,1.56,.22,2.33-1.63,2.33-15.78-.04-31.56-.04-47.35,0-1.72,0-2.31-.57-1.7-2.32Z"/><path class="cls-1" d="M32.9,87.84c9.63,0,19.25,0,28.88,0,.67,0,1.39-.07,2,.14,.31,.1,.59,.72,.62,1.13,.02,.28-.36,.8-.64,.86-.64,.15-1.34,.11-2.01,.11-19.25,0-38.51,0-57.76,0-.59,0-1.22,.1-1.76-.06-.36-.11-.89-.66-.85-.93,.07-.44,.47-1.04,.87-1.18,.61-.21,1.33-.08,2.01-.08,9.54,0,19.09,0,28.63,0Z"/><path class="cls-1" d="M100.04,112.23c-.66-2.61-.55-4.32,2.24-5.14,1.12-.33,1.9-1.81,3.28-3.23-7.11-1.16-3.7-5.97-4.68-9.48h9.08c-.21,3.54,.03,7.19-.73,10.62-1.01,4.55-4.76,6.37-9.19,7.24Z"/><path class="cls-1" d="M72.89,164.06h62.46c.61,1.64,.04,2.19-1.55,2.16-3.29-.06-6.58-.01-9.88-.01-16.29,0-32.59,0-48.88,0-1.29,0-2.95,.33-2.16-2.14Z"/><path class="cls-1" d="M202.64,152.51c.52,1.79-.1,2.3-1.7,2.3-14.25-.04-28.5-.04-42.75,0-1.74,0-2.01-.75-1.58-2.3h46.03Z"/><path class="cls-1" d="M156.59,160.32c-.5-1.7,.13-2.2,1.72-2.19,14.18,.04,28.36,.03,42.55,0,1.47,0,2.35,.31,1.79,2.19h-46.06Z"/><path class="cls-1" d="M52.18,164.08c.75,1.91-.25,2.15-1.77,2.14-9.21-.03-18.42-.01-27.64-.02-6.51,0-13.02,.03-19.52-.06-.64,0-1.28-.79-1.92-1.22,.64-.33,1.28-.94,1.92-.95,15.97-.05,31.95-.04,47.92-.03,.32,0,.65,.08,1,.12Z"/><path class="cls-1" d="M202.63,164.14c.66,2.36-.88,2.07-2.11,2.07-9.8,0-19.59,0-29.39,0-4.31,0-8.61,.05-12.92-.06-.69-.02-1.36-.77-2.04-1.18l.38-.84h46.08Z"/><path class="cls-1" d="M130.74,27.91c1.54-3.4,2.74-6.15,4.07-8.85,.23-.47,.99-.92,1.52-.94,2.65-.1,5.31-.04,8.63-.04-3.04,3.37-5.44,6.52-8.38,9.05-1.13,.97-3.48,.52-5.84,.79Z"/><path class="cls-1" d="M474.34,170.5v7.58h-7.88v-7.58h7.88Z"/><path class="cls-1" d="M371.61,94.33h7.8v7.66h-7.8v-7.66Z"/><path class="cls-1" d="M253.18,102.06h-7.83v-7.67h7.83v7.67Z"/><path class="cls-1" d="M124.9,94.41v7.59h-7.89v-7.59h7.89Z"/><path class="cls-1" d="M175.88,254.22h-7.95v-7.53h7.95v7.53Z"/><path class="cls-1" d="M573.99,178.12v-7.57h7.88v7.57h-7.88Z"/></g></g></svg>