<svg xmlns="http://www.w3.org/2000/svg" width="311.75" height="145" viewBox="0 0 311.75 145" style="background-color:white;"><g id="Calque_2" data-name="Calque 2"><g id="logo"><path d="M7.57,135.87c-2.08,0-3.52-1.81-3.52-4.48S5.34,127,7.48,127c2,0,3.46,1.88,3.46,4v.85c0,2.58-1.64,4-3.37,4M.12,140.1c.44,3.11,3.17,4.9,6.66,4.9,5.25,0,8.16-3.11,8.16-8.25V124H11.68l-.33,2a6,6,0,0,0-4.66-2.38c-3.84,0-6.6,3-6.6,7.84s2.67,7.83,6.54,7.83A5.29,5.29,0,0,0,11.06,137c.18,2.76-1.32,4.78-4.1,4.78a2.79,2.79,0,0,1-2.88-1.64ZM21.42,124H18.25v15h4V131.3c0-2.61.94-3.9,2.11-3.9a1.73,1.73,0,0,1,1.38,1l2-3.29a3,3,0,0,0-2.56-1.52c-1.55,0-2.63,1.61-3.22,2.88Zm16.63,5.72c-.91.06-2.17.18-3.17.3-2.75.32-6.16,1.29-6.16,5a4.4,4.4,0,0,0,4.7,4.36,7.2,7.2,0,0,0,5.1-2.28,2.5,2.5,0,0,0,2.64,2.23,4.71,4.71,0,0,0,2.26-.68l.62-3.14a4.16,4.16,0,0,1-1.32.3.81.81,0,0,1-.85-.88v-6.34c0-2.82-2.35-5-6-5s-5.93,1.76-7,4.14l3,1.79a3.93,3.93,0,0,1,3.82-2.79,2.24,2.24,0,0,1,2.43,2.23Zm-2.46,2.82c.7-.12,1.84-.26,2.49-.32v.64a3.75,3.75,0,0,1-3.75,3.26,1.52,1.52,0,0,1-1.71-1.5c0-1.11,1.27-1.78,3-2.08M49.91,124H46.29v20h4v-6.69a5,5,0,0,0,3.87,2.08c3.93,0,6.51-3,6.51-7.83s-2.34-8-6.36-8a5.33,5.33,0,0,0-4.14,2.29Zm3.51,2.94c2.26,0,3.26,1.93,3.26,4.6,0,2.82-1.26,4.4-3.23,4.4-.88,0-3.08-.73-3.13-3.84v-1c0-3.29,2.17-4.19,3.1-4.19m16.93,0a2.23,2.23,0,0,1,2.35,2.52v9.5h4v-9.76c0-4.35-2.79-5.61-5.4-5.61a5.78,5.78,0,0,0-3.9,1.76v-7.57h-4v21.18h4v-8.21c.09-3.29,2-3.81,2.9-3.81m9.74,12h4V124h-4Zm17.67-13.08a5.47,5.47,0,0,0-4.2-2.29c-4,0-6.48,3.26-6.48,8s2.7,7.83,6.63,7.83a5.07,5.07,0,0,0,3.93-2.08v6.69h4V124H98Zm-3.35,1.06c.94,0,3.14.9,3.17,4.19v1c-.06,3.11-2.32,3.84-3.2,3.84-2,0-3.34-1.58-3.34-4.4,0-2.67,1.11-4.6,3.37-4.6m16.78,8.89a2.29,2.29,0,0,1-2.34-2.56V124h-4v9.48c0,4.34,2.78,5.87,5.42,5.87a4.57,4.57,0,0,0,4-2.29l.23,1.9h3.67V124H114.1v8.1c-.06,3-1.88,3.73-2.91,3.73m20.34-2.06a3.49,3.49,0,0,1-3.29,2.29,3.31,3.31,0,0,1-3.29-3.64h8.4l1.55-.11s.06-.71.06-1c0-4.4-2.61-7.72-6.87-7.72-4.57,0-7.19,3.43-7.19,7.87,0,5,3.2,7.91,7.31,7.91a7,7,0,0,0,6.69-4.42Zm-3.53-7a2.7,2.7,0,0,1,2.82,2.7h-5.69a2.83,2.83,0,0,1,2.87-2.7M10.62,97.35a3.48,3.48,0,0,1-3.28,2.29A3.3,3.3,0,0,1,4.05,96h8.39L14,95.88s.05-.7.05-1c0-4.4-2.61-7.71-6.86-7.71C2.61,87.17,0,90.6,0,95c0,5,3.2,7.92,7.31,7.92A7,7,0,0,0,14,98.52Zm-3.52-7a2.71,2.71,0,0,1,2.82,2.7H4.22a2.84,2.84,0,0,1,2.88-2.7m18.11,8.75a8.82,8.82,0,0,1-2.12.44,1.12,1.12,0,0,1-1.17-1.26v-7.4h3V87.58H21.89V81.4L18,85.16v2.42H15.35v3.31H18V99c0,2.59,1.44,4,3.84,4a6.59,6.59,0,0,0,2.73-.7Zm19.59,3.43h3.43V81.36H44.3v7.33a5,5,0,0,0-3.69-1.52c-3.85,0-6.49,3-6.49,7.83s2.26,8,6.52,8a5.36,5.36,0,0,0,3.93-1.82Zm-3.61-3.05c-2.11,0-3.08-1.82-3.08-4.49s.94-4.37,3-4.37c1,0,3.09.82,3.15,3.87v.91c-.06,3.29-2.12,4.08-3.06,4.08m20.43-2.14a3.5,3.5,0,0,1-3.29,2.29A3.3,3.3,0,0,1,55,96h8.39L65,95.88s.06-.7.06-1c0-4.4-2.61-7.71-6.87-7.71C53.6,87.17,51,90.6,51,95c0,5,3.2,7.92,7.31,7.92A7,7,0,0,0,65,98.52Zm-3.53-7a2.71,2.71,0,0,1,2.82,2.7H55.22a2.83,2.83,0,0,1,2.87-2.7m16.67,12.18h4V81.36h-4ZM91,93.3c-.91.06-2.17.18-3.17.29-2.76.32-6.16,1.29-6.16,5A4.4,4.4,0,0,0,86.31,103a7.21,7.21,0,0,0,5.11-2.29,2.5,2.5,0,0,0,2.64,2.23,4.83,4.83,0,0,0,2.26-.67l.62-3.14a4.19,4.19,0,0,1-1.32.29.81.81,0,0,1-.86-.88V92.16c0-2.82-2.34-5-6-5s-5.93,1.76-7,4.13l3,1.79a3.94,3.94,0,0,1,3.82-2.78A2.24,2.24,0,0,1,91,92.54Zm-2.46,2.81c.7-.11,1.85-.26,2.49-.32v.65a3.75,3.75,0,0,1-3.76,3.25,1.51,1.51,0,0,1-1.7-1.49c0-1.12,1.26-1.79,3-2.09M119.32,92a6.48,6.48,0,0,0-6.51-4.78c-4.37,0-7.31,3.37-7.31,7.89,0,4.75,2.88,7.89,7.37,7.89a6.94,6.94,0,0,0,6.42-4.37l-3.11-1.67a3.56,3.56,0,0,1-3.28,2.7c-2.09,0-3.47-1.62-3.47-4.55s1.33-4.58,3.32-4.58a3.25,3.25,0,0,1,3.11,2.76ZM121.08,95c0,4.81,2.64,7.92,7.28,7.92,4.37,0,7.31-3.08,7.31-8s-3.06-7.77-7.31-7.77c-4.58,0-7.28,3.34-7.28,7.86m4-.06c0-2.4,1.06-4.61,3.26-4.61s3.31,1.94,3.31,4.61-1.11,4.67-3.31,4.67-3.26-2-3.26-4.67m20.25-4.46c1.46,0,2.34,1,2.34,2.73v9.3h4v-8.1c.06-3.37,1.62-3.93,2.76-3.93,1.41,0,2.35.88,2.35,2.67v9.36h4V93c0-4.44-2.55-5.84-5.43-5.84a6,6,0,0,0-4.61,2.75,4.31,4.31,0,0,0-4.28-2.75,5.69,5.69,0,0,0-4.34,2.72l-.21-2.31h-3.46v15h4V94.39c.12-3.41,1.88-3.88,2.91-3.88m25.52,0c1.47,0,2.35,1,2.35,2.73v9.3h4v-8.1c.06-3.37,1.61-3.93,2.76-3.93,1.41,0,2.35.88,2.35,2.67v9.36h4V93c0-4.44-2.55-5.84-5.42-5.84a6,6,0,0,0-4.61,2.75A4.31,4.31,0,0,0,172,87.17a5.73,5.73,0,0,0-4.35,2.72l-.2-2.31H164v15h4V94.39c.11-3.41,1.87-3.88,2.9-3.88m24.85,8.89a2.29,2.29,0,0,1-2.34-2.55V87.58h-4v9.47c0,4.35,2.79,5.87,5.43,5.87a4.54,4.54,0,0,0,4-2.28l.24,1.9h3.66v-15h-4v8.1c-.06,3-1.88,3.72-2.91,3.72m17.22-8.86a2.32,2.32,0,0,1,2.35,2.52v9.48h4.05V92.77c0-3.73-2.17-5.6-5.4-5.6a4.9,4.9,0,0,0-4.08,2.52l-.41-2.11H206v15h4V94.35c.12-3.28,2-3.81,2.9-3.81m9.74,12h4v-15h-4ZM243.43,92a6.5,6.5,0,0,0-6.52-4.78c-4.37,0-7.3,3.37-7.3,7.89,0,4.75,2.87,7.89,7.36,7.89a6.94,6.94,0,0,0,6.42-4.37l-3.1-1.67a3.58,3.58,0,0,1-3.29,2.7c-2.08,0-3.46-1.62-3.46-4.55s1.32-4.58,3.32-4.58a3.24,3.24,0,0,1,3.1,2.76Zm11.49,1.35c-.91.06-2.17.18-3.17.29-2.76.32-6.16,1.29-6.16,5a4.4,4.4,0,0,0,4.69,4.37,7.21,7.21,0,0,0,5.11-2.29,2.5,2.5,0,0,0,2.64,2.23,4.83,4.83,0,0,0,2.26-.67l.62-3.14a4.2,4.2,0,0,1-1.33.29.8.8,0,0,1-.84-.88V92.16c0-2.82-2.35-5-6.05-5s-5.92,1.76-7,4.13l3,1.79a3.94,3.94,0,0,1,3.82-2.78,2.24,2.24,0,0,1,2.43,2.23Zm-2.46,2.81c.7-.11,1.85-.26,2.49-.32v.65a3.75,3.75,0,0,1-3.76,3.25,1.51,1.51,0,0,1-1.7-1.49c0-1.12,1.26-1.79,3-2.09m18.89,3a8.74,8.74,0,0,1-2.11.44,1.12,1.12,0,0,1-1.18-1.26v-7.4h3.06V87.58H268V81.4l-3.93,3.76v2.42h-2.61v3.31h2.61V99c0,2.59,1.44,4,3.85,4a6.63,6.63,0,0,0,2.73-.7Zm2.76,3.43h4v-15h-4ZM281.06,95c0,4.81,2.64,7.92,7.28,7.92,4.37,0,7.3-3.08,7.3-8s-3.05-7.77-7.3-7.77c-4.58,0-7.28,3.34-7.28,7.86m4-.06c0-2.4,1.06-4.61,3.26-4.61s3.31,1.94,3.31,4.61-1.11,4.67-3.31,4.67-3.26-2-3.26-4.67m20.27-4.43a2.32,2.32,0,0,1,2.35,2.52v9.48h4.05V92.77c0-3.73-2.17-5.6-5.4-5.6a4.9,4.9,0,0,0-4.08,2.52l-.41-2.11h-3.43v15h4V94.35c.12-3.28,2-3.81,2.9-3.81M10.68,66.15h3.43V45H10.18v7.34a5,5,0,0,0-3.69-1.53c-3.85,0-6.49,3-6.49,7.83s2.26,8,6.52,8a5.39,5.39,0,0,0,3.93-1.81Zm-3.61-3C5,63.11,4,61.29,4,58.61s.94-4.37,3-4.37c1,0,3.07.83,3.13,3.87V59c-.06,3.29-2.11,4.09-3,4.09M27.49,61a3.47,3.47,0,0,1-3.28,2.29,3.3,3.3,0,0,1-3.29-3.64h8.39l1.56-.12s.05-.7.05-1c0-4.4-2.61-7.72-6.86-7.72-4.58,0-7.19,3.43-7.19,7.86,0,5,3.2,7.92,7.31,7.92a7,7,0,0,0,6.69-4.42ZM24,54a2.71,2.71,0,0,1,2.82,2.7H21.1A2.83,2.83,0,0,1,24,54M40.64,66.15h4V45h-4Zm9.47-16.63a2.64,2.64,0,0,1-2.46,2v2c2.84-.38,4.78-2.23,4.78-5V45H48.2v3.84Zm5.61,16.63h4v-15h-4Zm14.4-12c1.47,0,2.35,1,2.35,2.72v9.3h4V58.06c.06-3.38,1.61-3.93,2.76-3.93,1.41,0,2.34.88,2.34,2.66v9.36h4V56.62c0-4.43-2.55-5.84-5.42-5.84a6,6,0,0,0-4.61,2.76,4.32,4.32,0,0,0-4.28-2.76,5.74,5.74,0,0,0-4.35,2.73l-.2-2.32H63.23v15h4V58c.11-3.4,1.87-3.87,2.9-3.87m22.24-2.94H88.75V70.8h4V64.48a5,5,0,0,0,3.87,2.08c3.94,0,6.52-3,6.52-7.83s-2.35-7.95-6.37-7.95a5.37,5.37,0,0,0-4.14,2.29Zm3.52,2.94c2.26,0,3.26,1.93,3.26,4.6,0,2.82-1.26,4.4-3.23,4.4-.88,0-3.08-.73-3.14-3.84v-1c0-3.28,2.17-4.19,3.11-4.19m13.18-2.94h-3.18v15h4V58.53c0-2.61.93-3.9,2.11-3.9a1.73,1.73,0,0,1,1.37,1l2-3.28a3,3,0,0,0-2.55-1.53c-1.56,0-2.64,1.61-3.23,2.88Zm8,15h4v-15h-4Zm14.4-12c1.47,0,2.35,1,2.35,2.72v9.3h4V58.06c.05-3.38,1.61-3.93,2.75-3.93,1.41,0,2.35.88,2.35,2.66v9.36h4V56.62c0-4.43-2.55-5.84-5.43-5.84a6,6,0,0,0-4.6,2.76,4.33,4.33,0,0,0-4.29-2.76,5.74,5.74,0,0,0-4.34,2.73l-.2-2.32h-3.47v15h4V58c.12-3.4,1.88-3.87,2.91-3.87M160.1,61a3.47,3.47,0,0,1-3.28,2.29,3.3,3.3,0,0,1-3.29-3.64h8.39l1.56-.12s.06-.7.06-1c0-4.4-2.62-7.72-6.87-7.72-4.58,0-7.19,3.43-7.19,7.86,0,5,3.2,7.92,7.31,7.92a7,7,0,0,0,6.69-4.42Zm-3.52-7a2.7,2.7,0,0,1,2.82,2.7h-5.69a2.83,2.83,0,0,1,2.87-2.7m12.79-2.79h-3.16v15h4V58.53c0-2.61.95-3.9,2.12-3.9a1.74,1.74,0,0,1,1.38,1l2-3.28a3,3,0,0,0-2.55-1.53c-1.55,0-2.64,1.61-3.23,2.88Zm8,15h4v-15h-4ZM194.9,61a3.48,3.48,0,0,1-3.29,2.29,3.3,3.3,0,0,1-3.28-3.64h8.39l1.55-.12s.06-.7.06-1c0-4.4-2.61-7.72-6.86-7.72-4.58,0-7.19,3.43-7.19,7.86,0,5,3.2,7.92,7.31,7.92a7,7,0,0,0,6.68-4.42Zm-3.52-7a2.71,2.71,0,0,1,2.82,2.7h-5.7a2.84,2.84,0,0,1,2.88-2.7M7.48,17.74c1.47,0,2.35,1,2.35,2.73v9.3h4v-8.1c.06-3.37,1.61-3.93,2.76-3.93,1.41,0,2.35.88,2.35,2.67v9.36h4V20.23c0-4.42-2.55-5.83-5.42-5.83a6,6,0,0,0-4.61,2.75A4.31,4.31,0,0,0,8.6,14.4a5.73,5.73,0,0,0-4.35,2.72l-.2-2.31H.59v15h4V21.61c.12-3.4,1.87-3.87,2.9-3.87m24.74,8.89a2.29,2.29,0,0,1-2.35-2.55V14.81h-4v9.47c0,4.34,2.79,5.87,5.43,5.87a4.57,4.57,0,0,0,4-2.29l.23,1.91h3.67v-15H35.12V22.9c-.06,3-1.88,3.73-2.9,3.73M51,25.49c0,.64-.67,1.38-2.32,1.38A4.83,4.83,0,0,1,44.36,24L41.57,26c.65,2.06,3.64,4.11,7.08,4.11,3.6,0,6.22-2,6.22-5s-2.24-3.9-4.17-4.31c-1-.21-1.94-.41-2.91-.65C46.5,19.91,46,19.53,46,19c0-.79.79-1.32,2.23-1.32a4.78,4.78,0,0,1,4,2.26l2.41-2.43a7.91,7.91,0,0,0-6.31-3.05c-3.52,0-6.13,1.79-6.13,4.66s2.35,3.9,4.37,4.46c1,.26,2.14.53,3.11.73S51,24.9,51,25.49m19.75.26a7,7,0,0,1-6.69,4.43c-4.11,0-7.31-2.88-7.31-7.92,0-4.43,2.61-7.86,7.19-7.86,4.25,0,6.86,3.31,6.86,7.71,0,.3,0,1,0,1l-1.56.12H60.82a3.3,3.3,0,0,0,3.29,3.64,3.47,3.47,0,0,0,3.28-2.29Zm-6.89-8.16A2.82,2.82,0,0,0,61,20.29h5.69a2.7,2.7,0,0,0-2.81-2.7m19.53,7a3.47,3.47,0,0,1-3.29,2.29,3.3,3.3,0,0,1-3.28-3.64h8.39l1.55-.12s.06-.7.06-1c0-4.4-2.61-7.71-6.86-7.71-4.58,0-7.19,3.43-7.19,7.86,0,5,3.2,7.92,7.31,7.92a7,7,0,0,0,6.68-4.43Zm-3.52-7a2.71,2.71,0,0,1,2.82,2.7H77a2.82,2.82,0,0,1,2.87-2.7M.61,1.1H86.2V0H.61Zm0,2.77H86.2V2.76H.61Zm0,2.74H86.2V5.51H.61ZM134.14,109.15H.61v6.62H134.14ZM311,72.77H105.89v6.62H311ZM.61,73.87H25v-1.1H.61Zm0,2.77H25V75.53H.61Zm0,2.75H25V78.28H.61Zm34-5.52H64.72v-1.1H34.63Zm0,2.77H64.72V75.53H34.63Zm0,2.75H64.72V78.28H34.63Zm40.08-5.52H96.86v-1.1H74.71Zm0,2.77H96.86V75.53H74.71Zm0,2.75H96.86V78.28H74.71ZM.61,37.49H30.74v-1.1H.61Zm0,2.76H30.74v-1.1H.61ZM.61,43H30.74V41.9H.61Zm196.45-6.61H40.61V43H197.06ZM55.77,48.75h3.91V45H55.77Zm61.33,0H121V45h-3.9Zm-37,72.78h3.91v-3.78H80.14Zm97.27-72.78h3.91V45h-3.91Zm45.33,36.39h3.91V81.36h-3.91Zm51.43,0h3.9V81.36h-3.9ZM64.56,8.59l-2.09,4.57h2.61l4.11-4.57Z"/></g></g></svg>